%TF.GenerationSoftware,KiCad,Pcbnew,5.1.5+dfsg1-2build2*%
%TF.CreationDate,2021-08-20T15:01:26+02:00*%
%TF.ProjectId,power-supply,706f7765-722d-4737-9570-706c792e6b69,1.2*%
%TF.SameCoordinates,PX4d83c00PY6a95280*%
%TF.FileFunction,Soldermask,Bot*%
%TF.FilePolarity,Negative*%
%FSLAX46Y46*%
G04 Gerber Fmt 4.6, Leading zero omitted, Abs format (unit mm)*
G04 Created by KiCad (PCBNEW 5.1.5+dfsg1-2build2) date 2021-08-20 15:01:26*
%MOMM*%
%LPD*%
G04 APERTURE LIST*
%ADD10C,0.150000*%
G04 APERTURE END LIST*
D10*
G36*
X26851000Y1089000D02*
G01*
X23949000Y1089000D01*
X23949000Y3991000D01*
X26851000Y3991000D01*
X26851000Y1089000D01*
G37*
G36*
X19231000Y1089000D02*
G01*
X16329000Y1089000D01*
X16329000Y3991000D01*
X19231000Y3991000D01*
X19231000Y1089000D01*
G37*
G36*
X2764549Y3668884D02*
G01*
X2875734Y3646768D01*
X3085203Y3560003D01*
X3273720Y3434040D01*
X3434040Y3273720D01*
X3560003Y3085203D01*
X3646768Y2875734D01*
X3691000Y2653364D01*
X3691000Y2426636D01*
X3646768Y2204266D01*
X3560003Y1994797D01*
X3434040Y1806280D01*
X3273720Y1645960D01*
X3085203Y1519997D01*
X2875734Y1433232D01*
X2764549Y1411116D01*
X2653365Y1389000D01*
X2426635Y1389000D01*
X2315451Y1411116D01*
X2204266Y1433232D01*
X1994797Y1519997D01*
X1806280Y1645960D01*
X1645960Y1806280D01*
X1519997Y1994797D01*
X1433232Y2204266D01*
X1389000Y2426636D01*
X1389000Y2653364D01*
X1433232Y2875734D01*
X1519997Y3085203D01*
X1645960Y3273720D01*
X1806280Y3434040D01*
X1994797Y3560003D01*
X2204266Y3646768D01*
X2315451Y3668884D01*
X2426635Y3691000D01*
X2653365Y3691000D01*
X2764549Y3668884D01*
G37*
G36*
X99284549Y3668884D02*
G01*
X99395734Y3646768D01*
X99605203Y3560003D01*
X99793720Y3434040D01*
X99954040Y3273720D01*
X100080003Y3085203D01*
X100166768Y2875734D01*
X100211000Y2653364D01*
X100211000Y2426636D01*
X100166768Y2204266D01*
X100080003Y1994797D01*
X99954040Y1806280D01*
X99793720Y1645960D01*
X99605203Y1519997D01*
X99395734Y1433232D01*
X99284549Y1411116D01*
X99173365Y1389000D01*
X98946635Y1389000D01*
X98835451Y1411116D01*
X98724266Y1433232D01*
X98514797Y1519997D01*
X98326280Y1645960D01*
X98165960Y1806280D01*
X98039997Y1994797D01*
X97953232Y2204266D01*
X97909000Y2426636D01*
X97909000Y2653364D01*
X97953232Y2875734D01*
X98039997Y3085203D01*
X98165960Y3273720D01*
X98326280Y3434040D01*
X98514797Y3560003D01*
X98724266Y3646768D01*
X98835451Y3668884D01*
X98946635Y3691000D01*
X99173365Y3691000D01*
X99284549Y3668884D01*
G37*
G36*
X33871000Y1689000D02*
G01*
X32169000Y1689000D01*
X32169000Y3391000D01*
X33871000Y3391000D01*
X33871000Y1689000D01*
G37*
G36*
X64989059Y3262140D02*
G01*
X65125732Y3205528D01*
X65248735Y3123340D01*
X65353340Y3018735D01*
X65435528Y2895732D01*
X65435529Y2895730D01*
X65492140Y2759059D01*
X65521000Y2613968D01*
X65521000Y2466032D01*
X65492140Y2320941D01*
X65443812Y2204266D01*
X65435528Y2184268D01*
X65353340Y2061265D01*
X65248735Y1956660D01*
X65125732Y1874472D01*
X65125731Y1874471D01*
X65125730Y1874471D01*
X64989059Y1817860D01*
X64843968Y1789000D01*
X64696032Y1789000D01*
X64550941Y1817860D01*
X64414270Y1874471D01*
X64414269Y1874471D01*
X64414268Y1874472D01*
X64291265Y1956660D01*
X64186660Y2061265D01*
X64104472Y2184268D01*
X64096189Y2204266D01*
X64047860Y2320941D01*
X64019000Y2466032D01*
X64019000Y2613968D01*
X64047860Y2759059D01*
X64104471Y2895730D01*
X64104472Y2895732D01*
X64186660Y3018735D01*
X64291265Y3123340D01*
X64414268Y3205528D01*
X64550941Y3262140D01*
X64696032Y3291000D01*
X64843968Y3291000D01*
X64989059Y3262140D01*
G37*
G36*
X72638228Y4668297D02*
G01*
X72793100Y4604147D01*
X72932481Y4511015D01*
X73051015Y4392481D01*
X73144147Y4253100D01*
X73208297Y4098228D01*
X73241000Y3933816D01*
X73241000Y3766184D01*
X73208297Y3601772D01*
X73144147Y3446900D01*
X73051015Y3307519D01*
X72932481Y3188985D01*
X72793100Y3095853D01*
X72638228Y3031703D01*
X72473816Y2999000D01*
X72306184Y2999000D01*
X72141772Y3031703D01*
X71986900Y3095853D01*
X71847519Y3188985D01*
X71728985Y3307519D01*
X71635853Y3446900D01*
X71571703Y3601772D01*
X71539000Y3766184D01*
X71539000Y3933816D01*
X71571703Y4098228D01*
X71635853Y4253100D01*
X71728985Y4392481D01*
X71847519Y4511015D01*
X71986900Y4604147D01*
X72141772Y4668297D01*
X72306184Y4701000D01*
X72473816Y4701000D01*
X72638228Y4668297D01*
G37*
G36*
X60741000Y4076500D02*
G01*
X58639000Y4076500D01*
X58639000Y6083500D01*
X60741000Y6083500D01*
X60741000Y4076500D01*
G37*
G36*
X82231000Y4129000D02*
G01*
X80329000Y4129000D01*
X80329000Y6031000D01*
X82231000Y6031000D01*
X82231000Y4129000D01*
G37*
G36*
X64989059Y5762140D02*
G01*
X65125732Y5705528D01*
X65248735Y5623340D01*
X65353340Y5518735D01*
X65435528Y5395732D01*
X65492140Y5259059D01*
X65521000Y5113967D01*
X65521000Y4966033D01*
X65492140Y4820941D01*
X65435528Y4684268D01*
X65353340Y4561265D01*
X65248735Y4456660D01*
X65125732Y4374472D01*
X65125731Y4374471D01*
X65125730Y4374471D01*
X64989059Y4317860D01*
X64843968Y4289000D01*
X64696032Y4289000D01*
X64550941Y4317860D01*
X64414270Y4374471D01*
X64414269Y4374471D01*
X64414268Y4374472D01*
X64291265Y4456660D01*
X64186660Y4561265D01*
X64104472Y4684268D01*
X64047860Y4820941D01*
X64019000Y4966033D01*
X64019000Y5113967D01*
X64047860Y5259059D01*
X64104472Y5395732D01*
X64186660Y5518735D01*
X64291265Y5623340D01*
X64414268Y5705528D01*
X64550941Y5762140D01*
X64696032Y5791000D01*
X64843968Y5791000D01*
X64989059Y5762140D01*
G37*
G36*
X73241000Y5499000D02*
G01*
X71539000Y5499000D01*
X71539000Y7201000D01*
X73241000Y7201000D01*
X73241000Y5499000D01*
G37*
G36*
X43555331Y9351789D02*
G01*
X43883092Y9216026D01*
X44178070Y9018928D01*
X44428928Y8768070D01*
X44626026Y8473092D01*
X44761789Y8145331D01*
X44831000Y7797384D01*
X44831000Y7442616D01*
X44761789Y7094669D01*
X44626026Y6766908D01*
X44428928Y6471930D01*
X44178070Y6221072D01*
X43883092Y6023974D01*
X43555331Y5888211D01*
X43207384Y5819000D01*
X42852616Y5819000D01*
X42504669Y5888211D01*
X42176908Y6023974D01*
X41881930Y6221072D01*
X41631072Y6471930D01*
X41433974Y6766908D01*
X41298211Y7094669D01*
X41229000Y7442616D01*
X41229000Y7797384D01*
X41298211Y8145331D01*
X41433974Y8473092D01*
X41631072Y8768070D01*
X41881930Y9018928D01*
X42176908Y9216026D01*
X42504669Y9351789D01*
X42852616Y9421000D01*
X43207384Y9421000D01*
X43555331Y9351789D01*
G37*
G36*
X59835936Y8618660D02*
G01*
X59934220Y8608980D01*
X60123381Y8551599D01*
X60297712Y8458417D01*
X60450515Y8333015D01*
X60575917Y8180212D01*
X60669099Y8005881D01*
X60726480Y7816720D01*
X60745855Y7620000D01*
X60726480Y7423280D01*
X60669099Y7234119D01*
X60575917Y7059788D01*
X60450515Y6906985D01*
X60297712Y6781583D01*
X60123381Y6688401D01*
X59934220Y6631020D01*
X59835936Y6621340D01*
X59786795Y6616500D01*
X59593205Y6616500D01*
X59544064Y6621340D01*
X59445780Y6631020D01*
X59256619Y6688401D01*
X59082288Y6781583D01*
X58929485Y6906985D01*
X58804083Y7059788D01*
X58710901Y7234119D01*
X58653520Y7423280D01*
X58634145Y7620000D01*
X58653520Y7816720D01*
X58710901Y8005881D01*
X58804083Y8180212D01*
X58929485Y8333015D01*
X59082288Y8458417D01*
X59256619Y8551599D01*
X59445780Y8608980D01*
X59544064Y8618660D01*
X59593205Y8623500D01*
X59786795Y8623500D01*
X59835936Y8618660D01*
G37*
G36*
X81557395Y8534454D02*
G01*
X81730466Y8462766D01*
X81747675Y8451267D01*
X81886227Y8358690D01*
X82018690Y8226227D01*
X82018691Y8226225D01*
X82122766Y8070466D01*
X82194454Y7897395D01*
X82231000Y7713667D01*
X82231000Y7526333D01*
X82194454Y7342605D01*
X82122766Y7169534D01*
X82072743Y7094669D01*
X82018690Y7013773D01*
X81886227Y6881310D01*
X81882747Y6878985D01*
X81730466Y6777234D01*
X81557395Y6705546D01*
X81373667Y6669000D01*
X81186333Y6669000D01*
X81002605Y6705546D01*
X80829534Y6777234D01*
X80677253Y6878985D01*
X80673773Y6881310D01*
X80541310Y7013773D01*
X80487257Y7094669D01*
X80437234Y7169534D01*
X80365546Y7342605D01*
X80329000Y7526333D01*
X80329000Y7713667D01*
X80365546Y7897395D01*
X80437234Y8070466D01*
X80541309Y8226225D01*
X80541310Y8226227D01*
X80673773Y8358690D01*
X80812325Y8451267D01*
X80829534Y8462766D01*
X81002605Y8534454D01*
X81186333Y8571000D01*
X81373667Y8571000D01*
X81557395Y8534454D01*
G37*
G36*
X33268228Y8358297D02*
G01*
X33423100Y8294147D01*
X33562481Y8201015D01*
X33681015Y8082481D01*
X33774147Y7943100D01*
X33838297Y7788228D01*
X33871000Y7623816D01*
X33871000Y7456184D01*
X33838297Y7291772D01*
X33774147Y7136900D01*
X33681015Y6997519D01*
X33562481Y6878985D01*
X33423100Y6785853D01*
X33268228Y6721703D01*
X33103816Y6689000D01*
X32936184Y6689000D01*
X32771772Y6721703D01*
X32616900Y6785853D01*
X32477519Y6878985D01*
X32358985Y6997519D01*
X32265853Y7136900D01*
X32201703Y7291772D01*
X32169000Y7456184D01*
X32169000Y7623816D01*
X32201703Y7788228D01*
X32265853Y7943100D01*
X32358985Y8082481D01*
X32477519Y8201015D01*
X32616900Y8294147D01*
X32771772Y8358297D01*
X32936184Y8391000D01*
X33103816Y8391000D01*
X33268228Y8358297D01*
G37*
G36*
X64989059Y9652140D02*
G01*
X65115448Y9599788D01*
X65125732Y9595528D01*
X65248735Y9513340D01*
X65353340Y9408735D01*
X65411573Y9321583D01*
X65435529Y9285730D01*
X65492140Y9149059D01*
X65521000Y9003968D01*
X65521000Y8856032D01*
X65492140Y8710941D01*
X65435528Y8574268D01*
X65353340Y8451265D01*
X65248735Y8346660D01*
X65125732Y8264472D01*
X65125731Y8264471D01*
X65125730Y8264471D01*
X64989059Y8207860D01*
X64843968Y8179000D01*
X64696032Y8179000D01*
X64550941Y8207860D01*
X64414270Y8264471D01*
X64414269Y8264471D01*
X64414268Y8264472D01*
X64291265Y8346660D01*
X64186660Y8451265D01*
X64104472Y8574268D01*
X64047860Y8710941D01*
X64019000Y8856032D01*
X64019000Y9003968D01*
X64047860Y9149059D01*
X64104471Y9285730D01*
X64128427Y9321583D01*
X64186660Y9408735D01*
X64291265Y9513340D01*
X64414268Y9595528D01*
X64424553Y9599788D01*
X64550941Y9652140D01*
X64696032Y9681000D01*
X64843968Y9681000D01*
X64989059Y9652140D01*
G37*
G36*
X59835936Y11158660D02*
G01*
X59934220Y11148980D01*
X60123381Y11091599D01*
X60297712Y10998417D01*
X60450515Y10873015D01*
X60575917Y10720212D01*
X60669099Y10545881D01*
X60726480Y10356720D01*
X60745855Y10160000D01*
X60726480Y9963280D01*
X60669099Y9774119D01*
X60575917Y9599788D01*
X60450515Y9446985D01*
X60297712Y9321583D01*
X60123381Y9228401D01*
X59934220Y9171020D01*
X59835936Y9161340D01*
X59786795Y9156500D01*
X59593205Y9156500D01*
X59544064Y9161340D01*
X59445780Y9171020D01*
X59256619Y9228401D01*
X59082288Y9321583D01*
X58929485Y9446985D01*
X58804083Y9599788D01*
X58710901Y9774119D01*
X58653520Y9963280D01*
X58634145Y10160000D01*
X58653520Y10356720D01*
X58710901Y10545881D01*
X58804083Y10720212D01*
X58929485Y10873015D01*
X59082288Y10998417D01*
X59256619Y11091599D01*
X59445780Y11148980D01*
X59544064Y11158660D01*
X59593205Y11163500D01*
X59786795Y11163500D01*
X59835936Y11158660D01*
G37*
G36*
X64989059Y12152140D02*
G01*
X65125732Y12095528D01*
X65248735Y12013340D01*
X65353340Y11908735D01*
X65435528Y11785732D01*
X65492140Y11649059D01*
X65521000Y11503967D01*
X65521000Y11356033D01*
X65492140Y11210941D01*
X65435528Y11074268D01*
X65353340Y10951265D01*
X65248735Y10846660D01*
X65125732Y10764472D01*
X65125731Y10764471D01*
X65125730Y10764471D01*
X64989059Y10707860D01*
X64843968Y10679000D01*
X64696032Y10679000D01*
X64550941Y10707860D01*
X64414270Y10764471D01*
X64414269Y10764471D01*
X64414268Y10764472D01*
X64291265Y10846660D01*
X64186660Y10951265D01*
X64104472Y11074268D01*
X64047860Y11210941D01*
X64019000Y11356033D01*
X64019000Y11503967D01*
X64047860Y11649059D01*
X64104472Y11785732D01*
X64186660Y11908735D01*
X64291265Y12013340D01*
X64414268Y12095528D01*
X64550941Y12152140D01*
X64696032Y12181000D01*
X64843968Y12181000D01*
X64989059Y12152140D01*
G37*
G36*
X97859544Y15358917D02*
G01*
X97971616Y15324920D01*
X98074894Y15269717D01*
X98165422Y15195422D01*
X98239717Y15104894D01*
X98294920Y15001616D01*
X98328917Y14889544D01*
X98341000Y14766860D01*
X98341000Y13333140D01*
X98328917Y13210456D01*
X98294920Y13098384D01*
X98239717Y12995106D01*
X98165422Y12904578D01*
X98074894Y12830283D01*
X97971616Y12775080D01*
X97859544Y12741083D01*
X97736860Y12729000D01*
X95303140Y12729000D01*
X95180456Y12741083D01*
X95068384Y12775080D01*
X94965106Y12830283D01*
X94874578Y12904578D01*
X94800283Y12995106D01*
X94745080Y13098384D01*
X94711083Y13210456D01*
X94699000Y13333140D01*
X94699000Y14766860D01*
X94711083Y14889544D01*
X94745080Y15001616D01*
X94800283Y15104894D01*
X94874578Y15195422D01*
X94965106Y15269717D01*
X95068384Y15324920D01*
X95180456Y15358917D01*
X95303140Y15371000D01*
X97736860Y15371000D01*
X97859544Y15358917D01*
G37*
G36*
X5149544Y15358917D02*
G01*
X5261616Y15324920D01*
X5364894Y15269717D01*
X5455422Y15195422D01*
X5529717Y15104894D01*
X5584920Y15001616D01*
X5618917Y14889544D01*
X5631000Y14766860D01*
X5631000Y13333140D01*
X5618917Y13210456D01*
X5584920Y13098384D01*
X5529717Y12995106D01*
X5455422Y12904578D01*
X5364894Y12830283D01*
X5261616Y12775080D01*
X5149544Y12741083D01*
X5026860Y12729000D01*
X2593140Y12729000D01*
X2470456Y12741083D01*
X2358384Y12775080D01*
X2255106Y12830283D01*
X2164578Y12904578D01*
X2090283Y12995106D01*
X2035080Y13098384D01*
X2001083Y13210456D01*
X1989000Y13333140D01*
X1989000Y14766860D01*
X2001083Y14889544D01*
X2035080Y15001616D01*
X2090283Y15104894D01*
X2164578Y15195422D01*
X2255106Y15269717D01*
X2358384Y15324920D01*
X2470456Y15358917D01*
X2593140Y15371000D01*
X5026860Y15371000D01*
X5149544Y15358917D01*
G37*
G36*
X72638228Y14788297D02*
G01*
X72793100Y14724147D01*
X72932481Y14631015D01*
X73051015Y14512481D01*
X73144147Y14373100D01*
X73208297Y14218228D01*
X73241000Y14053816D01*
X73241000Y13886184D01*
X73208297Y13721772D01*
X73144147Y13566900D01*
X73051015Y13427519D01*
X72932481Y13308985D01*
X72793100Y13215853D01*
X72638228Y13151703D01*
X72473816Y13119000D01*
X72306184Y13119000D01*
X72141772Y13151703D01*
X71986900Y13215853D01*
X71847519Y13308985D01*
X71728985Y13427519D01*
X71635853Y13566900D01*
X71571703Y13721772D01*
X71539000Y13886184D01*
X71539000Y14053816D01*
X71571703Y14218228D01*
X71635853Y14373100D01*
X71728985Y14512481D01*
X71847519Y14631015D01*
X71986900Y14724147D01*
X72141772Y14788297D01*
X72306184Y14821000D01*
X72473816Y14821000D01*
X72638228Y14788297D01*
G37*
G36*
X77718228Y14788297D02*
G01*
X77873100Y14724147D01*
X78012481Y14631015D01*
X78131015Y14512481D01*
X78224147Y14373100D01*
X78288297Y14218228D01*
X78321000Y14053816D01*
X78321000Y13886184D01*
X78288297Y13721772D01*
X78224147Y13566900D01*
X78131015Y13427519D01*
X78012481Y13308985D01*
X77873100Y13215853D01*
X77718228Y13151703D01*
X77553816Y13119000D01*
X77386184Y13119000D01*
X77221772Y13151703D01*
X77066900Y13215853D01*
X76927519Y13308985D01*
X76808985Y13427519D01*
X76715853Y13566900D01*
X76651703Y13721772D01*
X76619000Y13886184D01*
X76619000Y14053816D01*
X76651703Y14218228D01*
X76715853Y14373100D01*
X76808985Y14512481D01*
X76927519Y14631015D01*
X77066900Y14724147D01*
X77221772Y14788297D01*
X77386184Y14821000D01*
X77553816Y14821000D01*
X77718228Y14788297D01*
G37*
G36*
X25823241Y16635240D02*
G01*
X26087305Y16525861D01*
X26324958Y16367066D01*
X26527066Y16164958D01*
X26685861Y15927305D01*
X26795240Y15663241D01*
X26851000Y15382912D01*
X26851000Y15097088D01*
X26795240Y14816759D01*
X26685861Y14552695D01*
X26527066Y14315042D01*
X26324958Y14112934D01*
X26087305Y13954139D01*
X25823241Y13844760D01*
X25542912Y13789000D01*
X25257088Y13789000D01*
X24976759Y13844760D01*
X24712695Y13954139D01*
X24475042Y14112934D01*
X24272934Y14315042D01*
X24114139Y14552695D01*
X24004760Y14816759D01*
X23949000Y15097088D01*
X23949000Y15382912D01*
X24004760Y15663241D01*
X24114139Y15927305D01*
X24272934Y16164958D01*
X24475042Y16367066D01*
X24712695Y16525861D01*
X24976759Y16635240D01*
X25257088Y16691000D01*
X25542912Y16691000D01*
X25823241Y16635240D01*
G37*
G36*
X18203241Y16635240D02*
G01*
X18467305Y16525861D01*
X18704958Y16367066D01*
X18907066Y16164958D01*
X19065861Y15927305D01*
X19175240Y15663241D01*
X19231000Y15382912D01*
X19231000Y15097088D01*
X19175240Y14816759D01*
X19065861Y14552695D01*
X18907066Y14315042D01*
X18704958Y14112934D01*
X18467305Y13954139D01*
X18203241Y13844760D01*
X17922912Y13789000D01*
X17637088Y13789000D01*
X17356759Y13844760D01*
X17092695Y13954139D01*
X16855042Y14112934D01*
X16652934Y14315042D01*
X16494139Y14552695D01*
X16384760Y14816759D01*
X16329000Y15097088D01*
X16329000Y15382912D01*
X16384760Y15663241D01*
X16494139Y15927305D01*
X16652934Y16164958D01*
X16855042Y16367066D01*
X17092695Y16525861D01*
X17356759Y16635240D01*
X17637088Y16691000D01*
X17922912Y16691000D01*
X18203241Y16635240D01*
G37*
G36*
X97859544Y20358917D02*
G01*
X97971616Y20324920D01*
X98074894Y20269717D01*
X98165422Y20195422D01*
X98239717Y20104894D01*
X98294920Y20001616D01*
X98328917Y19889544D01*
X98341000Y19766860D01*
X98341000Y18333140D01*
X98328917Y18210456D01*
X98294920Y18098384D01*
X98239717Y17995106D01*
X98165422Y17904578D01*
X98074894Y17830283D01*
X97971616Y17775080D01*
X97859544Y17741083D01*
X97736860Y17729000D01*
X95303140Y17729000D01*
X95180456Y17741083D01*
X95068384Y17775080D01*
X94965106Y17830283D01*
X94874578Y17904578D01*
X94800283Y17995106D01*
X94745080Y18098384D01*
X94711083Y18210456D01*
X94699000Y18333140D01*
X94699000Y19766860D01*
X94711083Y19889544D01*
X94745080Y20001616D01*
X94800283Y20104894D01*
X94874578Y20195422D01*
X94965106Y20269717D01*
X95068384Y20324920D01*
X95180456Y20358917D01*
X95303140Y20371000D01*
X97736860Y20371000D01*
X97859544Y20358917D01*
G37*
G36*
X5149544Y20358917D02*
G01*
X5261616Y20324920D01*
X5364894Y20269717D01*
X5455422Y20195422D01*
X5529717Y20104894D01*
X5584920Y20001616D01*
X5618917Y19889544D01*
X5631000Y19766860D01*
X5631000Y18333140D01*
X5618917Y18210456D01*
X5584920Y18098384D01*
X5529717Y17995106D01*
X5455422Y17904578D01*
X5364894Y17830283D01*
X5261616Y17775080D01*
X5149544Y17741083D01*
X5026860Y17729000D01*
X2593140Y17729000D01*
X2470456Y17741083D01*
X2358384Y17775080D01*
X2255106Y17830283D01*
X2164578Y17904578D01*
X2090283Y17995106D01*
X2035080Y18098384D01*
X2001083Y18210456D01*
X1989000Y18333140D01*
X1989000Y19766860D01*
X2001083Y19889544D01*
X2035080Y20001616D01*
X2090283Y20104894D01*
X2164578Y20195422D01*
X2255106Y20269717D01*
X2358384Y20324920D01*
X2470456Y20358917D01*
X2593140Y20371000D01*
X5026860Y20371000D01*
X5149544Y20358917D01*
G37*
G36*
X26851000Y21409000D02*
G01*
X23949000Y21409000D01*
X23949000Y24311000D01*
X26851000Y24311000D01*
X26851000Y21409000D01*
G37*
G36*
X19231000Y21409000D02*
G01*
X16329000Y21409000D01*
X16329000Y24311000D01*
X19231000Y24311000D01*
X19231000Y21409000D01*
G37*
G36*
X97859544Y25358917D02*
G01*
X97971616Y25324920D01*
X98074894Y25269717D01*
X98165422Y25195422D01*
X98239717Y25104894D01*
X98294920Y25001616D01*
X98328917Y24889544D01*
X98341000Y24766860D01*
X98341000Y23333140D01*
X98328917Y23210456D01*
X98294920Y23098384D01*
X98239717Y22995106D01*
X98165422Y22904578D01*
X98074894Y22830283D01*
X97971616Y22775080D01*
X97859544Y22741083D01*
X97736860Y22729000D01*
X95303140Y22729000D01*
X95180456Y22741083D01*
X95068384Y22775080D01*
X94965106Y22830283D01*
X94874578Y22904578D01*
X94800283Y22995106D01*
X94745080Y23098384D01*
X94711083Y23210456D01*
X94699000Y23333140D01*
X94699000Y24766860D01*
X94711083Y24889544D01*
X94745080Y25001616D01*
X94800283Y25104894D01*
X94874578Y25195422D01*
X94965106Y25269717D01*
X95068384Y25324920D01*
X95180456Y25358917D01*
X95303140Y25371000D01*
X97736860Y25371000D01*
X97859544Y25358917D01*
G37*
G36*
X5149544Y25358917D02*
G01*
X5261616Y25324920D01*
X5364894Y25269717D01*
X5455422Y25195422D01*
X5529717Y25104894D01*
X5584920Y25001616D01*
X5618917Y24889544D01*
X5631000Y24766860D01*
X5631000Y23333140D01*
X5618917Y23210456D01*
X5584920Y23098384D01*
X5529717Y22995106D01*
X5455422Y22904578D01*
X5364894Y22830283D01*
X5261616Y22775080D01*
X5149544Y22741083D01*
X5026860Y22729000D01*
X2593140Y22729000D01*
X2470456Y22741083D01*
X2358384Y22775080D01*
X2255106Y22830283D01*
X2164578Y22904578D01*
X2090283Y22995106D01*
X2035080Y23098384D01*
X2001083Y23210456D01*
X1989000Y23333140D01*
X1989000Y24766860D01*
X2001083Y24889544D01*
X2035080Y25001616D01*
X2090283Y25104894D01*
X2164578Y25195422D01*
X2255106Y25269717D01*
X2358384Y25324920D01*
X2470456Y25358917D01*
X2593140Y25371000D01*
X5026860Y25371000D01*
X5149544Y25358917D01*
G37*
G36*
X72638228Y24948297D02*
G01*
X72793100Y24884147D01*
X72932481Y24791015D01*
X73051015Y24672481D01*
X73144147Y24533100D01*
X73208297Y24378228D01*
X73241000Y24213816D01*
X73241000Y24046184D01*
X73208297Y23881772D01*
X73144147Y23726900D01*
X73051015Y23587519D01*
X72932481Y23468985D01*
X72793100Y23375853D01*
X72638228Y23311703D01*
X72473816Y23279000D01*
X72306184Y23279000D01*
X72141772Y23311703D01*
X71986900Y23375853D01*
X71847519Y23468985D01*
X71728985Y23587519D01*
X71635853Y23726900D01*
X71571703Y23881772D01*
X71539000Y24046184D01*
X71539000Y24213816D01*
X71571703Y24378228D01*
X71635853Y24533100D01*
X71728985Y24672481D01*
X71847519Y24791015D01*
X71986900Y24884147D01*
X72141772Y24948297D01*
X72306184Y24981000D01*
X72473816Y24981000D01*
X72638228Y24948297D01*
G37*
G36*
X77718228Y24948297D02*
G01*
X77873100Y24884147D01*
X78012481Y24791015D01*
X78131015Y24672481D01*
X78224147Y24533100D01*
X78288297Y24378228D01*
X78321000Y24213816D01*
X78321000Y24046184D01*
X78288297Y23881772D01*
X78224147Y23726900D01*
X78131015Y23587519D01*
X78012481Y23468985D01*
X77873100Y23375853D01*
X77718228Y23311703D01*
X77553816Y23279000D01*
X77386184Y23279000D01*
X77221772Y23311703D01*
X77066900Y23375853D01*
X76927519Y23468985D01*
X76808985Y23587519D01*
X76715853Y23726900D01*
X76651703Y23881772D01*
X76619000Y24046184D01*
X76619000Y24213816D01*
X76651703Y24378228D01*
X76715853Y24533100D01*
X76808985Y24672481D01*
X76927519Y24791015D01*
X77066900Y24884147D01*
X77221772Y24948297D01*
X77386184Y24981000D01*
X77553816Y24981000D01*
X77718228Y24948297D01*
G37*
G36*
X64989059Y26162140D02*
G01*
X65125732Y26105528D01*
X65248735Y26023340D01*
X65353340Y25918735D01*
X65435528Y25795732D01*
X65492140Y25659059D01*
X65521000Y25513967D01*
X65521000Y25366033D01*
X65492140Y25220941D01*
X65435528Y25084268D01*
X65353340Y24961265D01*
X65248735Y24856660D01*
X65125732Y24774472D01*
X65125731Y24774471D01*
X65125730Y24774471D01*
X64989059Y24717860D01*
X64843968Y24689000D01*
X64696032Y24689000D01*
X64550941Y24717860D01*
X64414270Y24774471D01*
X64414269Y24774471D01*
X64414268Y24774472D01*
X64291265Y24856660D01*
X64186660Y24961265D01*
X64104472Y25084268D01*
X64047860Y25220941D01*
X64019000Y25366033D01*
X64019000Y25513967D01*
X64047860Y25659059D01*
X64104472Y25795732D01*
X64186660Y25918735D01*
X64291265Y26023340D01*
X64414268Y26105528D01*
X64550941Y26162140D01*
X64696032Y26191000D01*
X64843968Y26191000D01*
X64989059Y26162140D01*
G37*
G36*
X60741000Y26936500D02*
G01*
X58639000Y26936500D01*
X58639000Y28943500D01*
X60741000Y28943500D01*
X60741000Y26936500D01*
G37*
G36*
X64989059Y28662140D02*
G01*
X65125732Y28605528D01*
X65248735Y28523340D01*
X65353340Y28418735D01*
X65435528Y28295732D01*
X65492140Y28159059D01*
X65521000Y28013967D01*
X65521000Y27866033D01*
X65492140Y27720941D01*
X65435528Y27584268D01*
X65353340Y27461265D01*
X65248735Y27356660D01*
X65125732Y27274472D01*
X65125731Y27274471D01*
X65125730Y27274471D01*
X64989059Y27217860D01*
X64843968Y27189000D01*
X64696032Y27189000D01*
X64550941Y27217860D01*
X64414270Y27274471D01*
X64414269Y27274471D01*
X64414268Y27274472D01*
X64291265Y27356660D01*
X64186660Y27461265D01*
X64104472Y27584268D01*
X64047860Y27720941D01*
X64019000Y27866033D01*
X64019000Y28013967D01*
X64047860Y28159059D01*
X64104472Y28295732D01*
X64186660Y28418735D01*
X64291265Y28523340D01*
X64414268Y28605528D01*
X64550941Y28662140D01*
X64696032Y28691000D01*
X64843968Y28691000D01*
X64989059Y28662140D01*
G37*
G36*
X43555331Y32211789D02*
G01*
X43883092Y32076026D01*
X44178070Y31878928D01*
X44428928Y31628070D01*
X44626026Y31333092D01*
X44761789Y31005331D01*
X44831000Y30657384D01*
X44831000Y30302616D01*
X44761789Y29954669D01*
X44626026Y29626908D01*
X44428928Y29331930D01*
X44178070Y29081072D01*
X43883092Y28883974D01*
X43555331Y28748211D01*
X43207384Y28679000D01*
X42852616Y28679000D01*
X42504669Y28748211D01*
X42176908Y28883974D01*
X41881930Y29081072D01*
X41631072Y29331930D01*
X41433974Y29626908D01*
X41298211Y29954669D01*
X41229000Y30302616D01*
X41229000Y30657384D01*
X41298211Y31005331D01*
X41433974Y31333092D01*
X41631072Y31628070D01*
X41881930Y31878928D01*
X42176908Y32076026D01*
X42504669Y32211789D01*
X42852616Y32281000D01*
X43207384Y32281000D01*
X43555331Y32211789D01*
G37*
G36*
X59835936Y31478660D02*
G01*
X59934220Y31468980D01*
X60123381Y31411599D01*
X60297712Y31318417D01*
X60450515Y31193015D01*
X60575917Y31040212D01*
X60669099Y30865881D01*
X60726480Y30676720D01*
X60745855Y30480000D01*
X60726480Y30283280D01*
X60669099Y30094119D01*
X60575917Y29919788D01*
X60450515Y29766985D01*
X60297712Y29641583D01*
X60123381Y29548401D01*
X59934220Y29491020D01*
X59835936Y29481340D01*
X59786795Y29476500D01*
X59593205Y29476500D01*
X59544064Y29481340D01*
X59445780Y29491020D01*
X59256619Y29548401D01*
X59082288Y29641583D01*
X58929485Y29766985D01*
X58804083Y29919788D01*
X58710901Y30094119D01*
X58653520Y30283280D01*
X58634145Y30480000D01*
X58653520Y30676720D01*
X58710901Y30865881D01*
X58804083Y31040212D01*
X58929485Y31193015D01*
X59082288Y31318417D01*
X59256619Y31411599D01*
X59445780Y31468980D01*
X59544064Y31478660D01*
X59593205Y31483500D01*
X59786795Y31483500D01*
X59835936Y31478660D01*
G37*
G36*
X81557395Y31394454D02*
G01*
X81730466Y31322766D01*
X81807540Y31271267D01*
X81886227Y31218690D01*
X82018690Y31086227D01*
X82019863Y31084471D01*
X82122766Y30930466D01*
X82194454Y30757395D01*
X82231000Y30573667D01*
X82231000Y30386333D01*
X82194454Y30202605D01*
X82122766Y30029534D01*
X82122765Y30029533D01*
X82018690Y29873773D01*
X81886227Y29741310D01*
X81807818Y29688919D01*
X81730466Y29637234D01*
X81557395Y29565546D01*
X81373667Y29529000D01*
X81186333Y29529000D01*
X81002605Y29565546D01*
X80829534Y29637234D01*
X80752182Y29688919D01*
X80673773Y29741310D01*
X80541310Y29873773D01*
X80437235Y30029533D01*
X80437234Y30029534D01*
X80365546Y30202605D01*
X80329000Y30386333D01*
X80329000Y30573667D01*
X80365546Y30757395D01*
X80437234Y30930466D01*
X80540137Y31084471D01*
X80541310Y31086227D01*
X80673773Y31218690D01*
X80752460Y31271267D01*
X80829534Y31322766D01*
X81002605Y31394454D01*
X81186333Y31431000D01*
X81373667Y31431000D01*
X81557395Y31394454D01*
G37*
G36*
X33871000Y29629000D02*
G01*
X32169000Y29629000D01*
X32169000Y31331000D01*
X33871000Y31331000D01*
X33871000Y29629000D01*
G37*
G36*
X73241000Y29629000D02*
G01*
X71539000Y29629000D01*
X71539000Y31331000D01*
X73241000Y31331000D01*
X73241000Y29629000D01*
G37*
G36*
X64989059Y32472140D02*
G01*
X65125732Y32415528D01*
X65248735Y32333340D01*
X65353340Y32228735D01*
X65435528Y32105732D01*
X65492140Y31969059D01*
X65521000Y31823967D01*
X65521000Y31676033D01*
X65492140Y31530941D01*
X65435528Y31394268D01*
X65353340Y31271265D01*
X65248735Y31166660D01*
X65125732Y31084472D01*
X65125731Y31084471D01*
X65125730Y31084471D01*
X64989059Y31027860D01*
X64843968Y30999000D01*
X64696032Y30999000D01*
X64550941Y31027860D01*
X64414270Y31084471D01*
X64414269Y31084471D01*
X64414268Y31084472D01*
X64291265Y31166660D01*
X64186660Y31271265D01*
X64104472Y31394268D01*
X64047860Y31530941D01*
X64019000Y31676033D01*
X64019000Y31823967D01*
X64047860Y31969059D01*
X64104472Y32105732D01*
X64186660Y32228735D01*
X64291265Y32333340D01*
X64414268Y32415528D01*
X64550941Y32472140D01*
X64696032Y32501000D01*
X64843968Y32501000D01*
X64989059Y32472140D01*
G37*
G36*
X59835936Y34018660D02*
G01*
X59934220Y34008980D01*
X60123381Y33951599D01*
X60297712Y33858417D01*
X60450515Y33733015D01*
X60575917Y33580212D01*
X60669099Y33405881D01*
X60726480Y33216720D01*
X60745855Y33020000D01*
X60726480Y32823280D01*
X60669099Y32634119D01*
X60575917Y32459788D01*
X60450515Y32306985D01*
X60297712Y32181583D01*
X60123381Y32088401D01*
X59934220Y32031020D01*
X59835936Y32021340D01*
X59786795Y32016500D01*
X59593205Y32016500D01*
X59544064Y32021340D01*
X59445780Y32031020D01*
X59256619Y32088401D01*
X59082288Y32181583D01*
X58929485Y32306985D01*
X58804083Y32459788D01*
X58710901Y32634119D01*
X58653520Y32823280D01*
X58634145Y33020000D01*
X58653520Y33216720D01*
X58710901Y33405881D01*
X58804083Y33580212D01*
X58929485Y33733015D01*
X59082288Y33858417D01*
X59256619Y33951599D01*
X59445780Y34008980D01*
X59544064Y34018660D01*
X59593205Y34023500D01*
X59786795Y34023500D01*
X59835936Y34018660D01*
G37*
G36*
X82231000Y32069000D02*
G01*
X80329000Y32069000D01*
X80329000Y33971000D01*
X82231000Y33971000D01*
X82231000Y32069000D01*
G37*
G36*
X72638228Y33798297D02*
G01*
X72793100Y33734147D01*
X72932481Y33641015D01*
X73051015Y33522481D01*
X73144147Y33383100D01*
X73208297Y33228228D01*
X73241000Y33063816D01*
X73241000Y32896184D01*
X73208297Y32731772D01*
X73144147Y32576900D01*
X73051015Y32437519D01*
X72932481Y32318985D01*
X72793100Y32225853D01*
X72638228Y32161703D01*
X72473816Y32129000D01*
X72306184Y32129000D01*
X72141772Y32161703D01*
X71986900Y32225853D01*
X71847519Y32318985D01*
X71728985Y32437519D01*
X71635853Y32576900D01*
X71571703Y32731772D01*
X71539000Y32896184D01*
X71539000Y33063816D01*
X71571703Y33228228D01*
X71635853Y33383100D01*
X71728985Y33522481D01*
X71847519Y33641015D01*
X71986900Y33734147D01*
X72141772Y33798297D01*
X72306184Y33831000D01*
X72473816Y33831000D01*
X72638228Y33798297D01*
G37*
G36*
X64989059Y34972140D02*
G01*
X65125732Y34915528D01*
X65248735Y34833340D01*
X65353340Y34728735D01*
X65435528Y34605732D01*
X65435529Y34605730D01*
X65462757Y34539996D01*
X65492140Y34469059D01*
X65521000Y34323967D01*
X65521000Y34176033D01*
X65492140Y34030941D01*
X65435528Y33894268D01*
X65353340Y33771265D01*
X65248735Y33666660D01*
X65125732Y33584472D01*
X65125731Y33584471D01*
X65125730Y33584471D01*
X64989059Y33527860D01*
X64843968Y33499000D01*
X64696032Y33499000D01*
X64550941Y33527860D01*
X64414270Y33584471D01*
X64414269Y33584471D01*
X64414268Y33584472D01*
X64291265Y33666660D01*
X64186660Y33771265D01*
X64104472Y33894268D01*
X64047860Y34030941D01*
X64019000Y34176033D01*
X64019000Y34323967D01*
X64047860Y34469059D01*
X64077243Y34539996D01*
X64104471Y34605730D01*
X64104472Y34605732D01*
X64186660Y34728735D01*
X64291265Y34833340D01*
X64414268Y34915528D01*
X64550941Y34972140D01*
X64696032Y35001000D01*
X64843968Y35001000D01*
X64989059Y34972140D01*
G37*
G36*
X25823241Y36955240D02*
G01*
X26087305Y36845861D01*
X26324958Y36687066D01*
X26527066Y36484958D01*
X26685861Y36247305D01*
X26795240Y35983241D01*
X26851000Y35702912D01*
X26851000Y35417088D01*
X26795240Y35136759D01*
X26685861Y34872695D01*
X26527066Y34635042D01*
X26324958Y34432934D01*
X26087305Y34274139D01*
X25823241Y34164760D01*
X25542912Y34109000D01*
X25257088Y34109000D01*
X24976759Y34164760D01*
X24712695Y34274139D01*
X24475042Y34432934D01*
X24272934Y34635042D01*
X24114139Y34872695D01*
X24004760Y35136759D01*
X23949000Y35417088D01*
X23949000Y35702912D01*
X24004760Y35983241D01*
X24114139Y36247305D01*
X24272934Y36484958D01*
X24475042Y36687066D01*
X24712695Y36845861D01*
X24976759Y36955240D01*
X25257088Y37011000D01*
X25542912Y37011000D01*
X25823241Y36955240D01*
G37*
G36*
X18203241Y36955240D02*
G01*
X18467305Y36845861D01*
X18704958Y36687066D01*
X18907066Y36484958D01*
X19065861Y36247305D01*
X19175240Y35983241D01*
X19231000Y35702912D01*
X19231000Y35417088D01*
X19175240Y35136759D01*
X19065861Y34872695D01*
X18907066Y34635042D01*
X18704958Y34432934D01*
X18467305Y34274139D01*
X18203241Y34164760D01*
X17922912Y34109000D01*
X17637088Y34109000D01*
X17356759Y34164760D01*
X17092695Y34274139D01*
X16855042Y34432934D01*
X16652934Y34635042D01*
X16494139Y34872695D01*
X16384760Y35136759D01*
X16329000Y35417088D01*
X16329000Y35702912D01*
X16384760Y35983241D01*
X16494139Y36247305D01*
X16652934Y36484958D01*
X16855042Y36687066D01*
X17092695Y36845861D01*
X17356759Y36955240D01*
X17637088Y37011000D01*
X17922912Y37011000D01*
X18203241Y36955240D01*
G37*
G36*
X99284549Y36688884D02*
G01*
X99395734Y36666768D01*
X99605203Y36580003D01*
X99793720Y36454040D01*
X99954040Y36293720D01*
X100080003Y36105203D01*
X100166768Y35895734D01*
X100211000Y35673364D01*
X100211000Y35446636D01*
X100166768Y35224266D01*
X100080003Y35014797D01*
X99954040Y34826280D01*
X99793720Y34665960D01*
X99605203Y34539997D01*
X99395734Y34453232D01*
X99293694Y34432935D01*
X99173365Y34409000D01*
X98946635Y34409000D01*
X98826306Y34432935D01*
X98724266Y34453232D01*
X98514797Y34539997D01*
X98326280Y34665960D01*
X98165960Y34826280D01*
X98039997Y35014797D01*
X97953232Y35224266D01*
X97909000Y35446636D01*
X97909000Y35673364D01*
X97953232Y35895734D01*
X98039997Y36105203D01*
X98165960Y36293720D01*
X98326280Y36454040D01*
X98514797Y36580003D01*
X98724266Y36666768D01*
X98835451Y36688884D01*
X98946635Y36711000D01*
X99173365Y36711000D01*
X99284549Y36688884D01*
G37*
G36*
X2764549Y36688884D02*
G01*
X2875734Y36666768D01*
X3085203Y36580003D01*
X3273720Y36454040D01*
X3434040Y36293720D01*
X3560003Y36105203D01*
X3646768Y35895734D01*
X3691000Y35673364D01*
X3691000Y35446636D01*
X3646768Y35224266D01*
X3560003Y35014797D01*
X3434040Y34826280D01*
X3273720Y34665960D01*
X3085203Y34539997D01*
X2875734Y34453232D01*
X2773694Y34432935D01*
X2653365Y34409000D01*
X2426635Y34409000D01*
X2306306Y34432935D01*
X2204266Y34453232D01*
X1994797Y34539997D01*
X1806280Y34665960D01*
X1645960Y34826280D01*
X1519997Y35014797D01*
X1433232Y35224266D01*
X1389000Y35446636D01*
X1389000Y35673364D01*
X1433232Y35895734D01*
X1519997Y36105203D01*
X1645960Y36293720D01*
X1806280Y36454040D01*
X1994797Y36580003D01*
X2204266Y36666768D01*
X2315451Y36688884D01*
X2426635Y36711000D01*
X2653365Y36711000D01*
X2764549Y36688884D01*
G37*
G36*
X33268228Y36298297D02*
G01*
X33423100Y36234147D01*
X33562481Y36141015D01*
X33681015Y36022481D01*
X33774147Y35883100D01*
X33838297Y35728228D01*
X33871000Y35563816D01*
X33871000Y35396184D01*
X33838297Y35231772D01*
X33774147Y35076900D01*
X33681015Y34937519D01*
X33562481Y34818985D01*
X33423100Y34725853D01*
X33268228Y34661703D01*
X33103816Y34629000D01*
X32936184Y34629000D01*
X32771772Y34661703D01*
X32616900Y34725853D01*
X32477519Y34818985D01*
X32358985Y34937519D01*
X32265853Y35076900D01*
X32201703Y35231772D01*
X32169000Y35396184D01*
X32169000Y35563816D01*
X32201703Y35728228D01*
X32265853Y35883100D01*
X32358985Y36022481D01*
X32477519Y36141015D01*
X32616900Y36234147D01*
X32771772Y36298297D01*
X32936184Y36331000D01*
X33103816Y36331000D01*
X33268228Y36298297D01*
G37*
M02*
