%TF.GenerationSoftware,KiCad,Pcbnew,5.1.5+dfsg1-2build2*%
%TF.CreationDate,2021-08-20T15:01:25+02:00*%
%TF.ProjectId,power-supply,706f7765-722d-4737-9570-706c792e6b69,1.2*%
%TF.SameCoordinates,PX4d83c00PY6a95280*%
%TF.FileFunction,Legend,Bot*%
%TF.FilePolarity,Positive*%
%FSLAX46Y46*%
G04 Gerber Fmt 4.6, Leading zero omitted, Abs format (unit mm)*
G04 Created by KiCad (PCBNEW 5.1.5+dfsg1-2build2) date 2021-08-20 15:01:25*
%MOMM*%
%LPD*%
G04 APERTURE LIST*
%ADD10C,0.150000*%
%ADD11C,1.502000*%
%ADD12O,2.102000X2.007000*%
%ADD13R,2.102000X2.007000*%
%ADD14O,3.602000X3.602000*%
%ADD15O,1.702000X1.702000*%
%ADD16C,1.702000*%
%ADD17C,2.302000*%
%ADD18R,1.702000X1.702000*%
%ADD19R,2.902000X2.902000*%
%ADD20O,2.902000X2.902000*%
%ADD21R,1.902000X1.902000*%
%ADD22C,1.902000*%
G04 APERTURE END LIST*
%LPC*%
D10*
%TO.C,J2*%
G36*
X97745240Y25367820D02*
G01*
X97809357Y25358309D01*
X97872233Y25342559D01*
X97933262Y25320722D01*
X97991858Y25293009D01*
X98047454Y25259686D01*
X98099517Y25221073D01*
X98147544Y25177544D01*
X98191073Y25129517D01*
X98229686Y25077454D01*
X98263009Y25021858D01*
X98290722Y24963262D01*
X98312559Y24902233D01*
X98328309Y24839357D01*
X98337820Y24775240D01*
X98341000Y24710500D01*
X98341000Y23389500D01*
X98337820Y23324760D01*
X98328309Y23260643D01*
X98312559Y23197767D01*
X98290722Y23136738D01*
X98263009Y23078142D01*
X98229686Y23022546D01*
X98191073Y22970483D01*
X98147544Y22922456D01*
X98099517Y22878927D01*
X98047454Y22840314D01*
X97991858Y22806991D01*
X97933262Y22779278D01*
X97872233Y22757441D01*
X97809357Y22741691D01*
X97745240Y22732180D01*
X97680500Y22729000D01*
X95359500Y22729000D01*
X95294760Y22732180D01*
X95230643Y22741691D01*
X95167767Y22757441D01*
X95106738Y22779278D01*
X95048142Y22806991D01*
X94992546Y22840314D01*
X94940483Y22878927D01*
X94892456Y22922456D01*
X94848927Y22970483D01*
X94810314Y23022546D01*
X94776991Y23078142D01*
X94749278Y23136738D01*
X94727441Y23197767D01*
X94711691Y23260643D01*
X94702180Y23324760D01*
X94699000Y23389500D01*
X94699000Y24710500D01*
X94702180Y24775240D01*
X94711691Y24839357D01*
X94727441Y24902233D01*
X94749278Y24963262D01*
X94776991Y25021858D01*
X94810314Y25077454D01*
X94848927Y25129517D01*
X94892456Y25177544D01*
X94940483Y25221073D01*
X94992546Y25259686D01*
X95048142Y25293009D01*
X95106738Y25320722D01*
X95167767Y25342559D01*
X95230643Y25358309D01*
X95294760Y25367820D01*
X95359500Y25371000D01*
X97680500Y25371000D01*
X97745240Y25367820D01*
G37*
G36*
X97745240Y20367820D02*
G01*
X97809357Y20358309D01*
X97872233Y20342559D01*
X97933262Y20320722D01*
X97991858Y20293009D01*
X98047454Y20259686D01*
X98099517Y20221073D01*
X98147544Y20177544D01*
X98191073Y20129517D01*
X98229686Y20077454D01*
X98263009Y20021858D01*
X98290722Y19963262D01*
X98312559Y19902233D01*
X98328309Y19839357D01*
X98337820Y19775240D01*
X98341000Y19710500D01*
X98341000Y18389500D01*
X98337820Y18324760D01*
X98328309Y18260643D01*
X98312559Y18197767D01*
X98290722Y18136738D01*
X98263009Y18078142D01*
X98229686Y18022546D01*
X98191073Y17970483D01*
X98147544Y17922456D01*
X98099517Y17878927D01*
X98047454Y17840314D01*
X97991858Y17806991D01*
X97933262Y17779278D01*
X97872233Y17757441D01*
X97809357Y17741691D01*
X97745240Y17732180D01*
X97680500Y17729000D01*
X95359500Y17729000D01*
X95294760Y17732180D01*
X95230643Y17741691D01*
X95167767Y17757441D01*
X95106738Y17779278D01*
X95048142Y17806991D01*
X94992546Y17840314D01*
X94940483Y17878927D01*
X94892456Y17922456D01*
X94848927Y17970483D01*
X94810314Y18022546D01*
X94776991Y18078142D01*
X94749278Y18136738D01*
X94727441Y18197767D01*
X94711691Y18260643D01*
X94702180Y18324760D01*
X94699000Y18389500D01*
X94699000Y19710500D01*
X94702180Y19775240D01*
X94711691Y19839357D01*
X94727441Y19902233D01*
X94749278Y19963262D01*
X94776991Y20021858D01*
X94810314Y20077454D01*
X94848927Y20129517D01*
X94892456Y20177544D01*
X94940483Y20221073D01*
X94992546Y20259686D01*
X95048142Y20293009D01*
X95106738Y20320722D01*
X95167767Y20342559D01*
X95230643Y20358309D01*
X95294760Y20367820D01*
X95359500Y20371000D01*
X97680500Y20371000D01*
X97745240Y20367820D01*
G37*
G36*
X97745240Y15367820D02*
G01*
X97809357Y15358309D01*
X97872233Y15342559D01*
X97933262Y15320722D01*
X97991858Y15293009D01*
X98047454Y15259686D01*
X98099517Y15221073D01*
X98147544Y15177544D01*
X98191073Y15129517D01*
X98229686Y15077454D01*
X98263009Y15021858D01*
X98290722Y14963262D01*
X98312559Y14902233D01*
X98328309Y14839357D01*
X98337820Y14775240D01*
X98341000Y14710500D01*
X98341000Y13389500D01*
X98337820Y13324760D01*
X98328309Y13260643D01*
X98312559Y13197767D01*
X98290722Y13136738D01*
X98263009Y13078142D01*
X98229686Y13022546D01*
X98191073Y12970483D01*
X98147544Y12922456D01*
X98099517Y12878927D01*
X98047454Y12840314D01*
X97991858Y12806991D01*
X97933262Y12779278D01*
X97872233Y12757441D01*
X97809357Y12741691D01*
X97745240Y12732180D01*
X97680500Y12729000D01*
X95359500Y12729000D01*
X95294760Y12732180D01*
X95230643Y12741691D01*
X95167767Y12757441D01*
X95106738Y12779278D01*
X95048142Y12806991D01*
X94992546Y12840314D01*
X94940483Y12878927D01*
X94892456Y12922456D01*
X94848927Y12970483D01*
X94810314Y13022546D01*
X94776991Y13078142D01*
X94749278Y13136738D01*
X94727441Y13197767D01*
X94711691Y13260643D01*
X94702180Y13324760D01*
X94699000Y13389500D01*
X94699000Y14710500D01*
X94702180Y14775240D01*
X94711691Y14839357D01*
X94727441Y14902233D01*
X94749278Y14963262D01*
X94776991Y15021858D01*
X94810314Y15077454D01*
X94848927Y15129517D01*
X94892456Y15177544D01*
X94940483Y15221073D01*
X94992546Y15259686D01*
X95048142Y15293009D01*
X95106738Y15320722D01*
X95167767Y15342559D01*
X95230643Y15358309D01*
X95294760Y15367820D01*
X95359500Y15371000D01*
X97680500Y15371000D01*
X97745240Y15367820D01*
G37*
%TD*%
%TO.C,J1*%
G36*
X5035240Y15367820D02*
G01*
X5099357Y15358309D01*
X5162233Y15342559D01*
X5223262Y15320722D01*
X5281858Y15293009D01*
X5337454Y15259686D01*
X5389517Y15221073D01*
X5437544Y15177544D01*
X5481073Y15129517D01*
X5519686Y15077454D01*
X5553009Y15021858D01*
X5580722Y14963262D01*
X5602559Y14902233D01*
X5618309Y14839357D01*
X5627820Y14775240D01*
X5631000Y14710500D01*
X5631000Y13389500D01*
X5627820Y13324760D01*
X5618309Y13260643D01*
X5602559Y13197767D01*
X5580722Y13136738D01*
X5553009Y13078142D01*
X5519686Y13022546D01*
X5481073Y12970483D01*
X5437544Y12922456D01*
X5389517Y12878927D01*
X5337454Y12840314D01*
X5281858Y12806991D01*
X5223262Y12779278D01*
X5162233Y12757441D01*
X5099357Y12741691D01*
X5035240Y12732180D01*
X4970500Y12729000D01*
X2649500Y12729000D01*
X2584760Y12732180D01*
X2520643Y12741691D01*
X2457767Y12757441D01*
X2396738Y12779278D01*
X2338142Y12806991D01*
X2282546Y12840314D01*
X2230483Y12878927D01*
X2182456Y12922456D01*
X2138927Y12970483D01*
X2100314Y13022546D01*
X2066991Y13078142D01*
X2039278Y13136738D01*
X2017441Y13197767D01*
X2001691Y13260643D01*
X1992180Y13324760D01*
X1989000Y13389500D01*
X1989000Y14710500D01*
X1992180Y14775240D01*
X2001691Y14839357D01*
X2017441Y14902233D01*
X2039278Y14963262D01*
X2066991Y15021858D01*
X2100314Y15077454D01*
X2138927Y15129517D01*
X2182456Y15177544D01*
X2230483Y15221073D01*
X2282546Y15259686D01*
X2338142Y15293009D01*
X2396738Y15320722D01*
X2457767Y15342559D01*
X2520643Y15358309D01*
X2584760Y15367820D01*
X2649500Y15371000D01*
X4970500Y15371000D01*
X5035240Y15367820D01*
G37*
G36*
X5035240Y20367820D02*
G01*
X5099357Y20358309D01*
X5162233Y20342559D01*
X5223262Y20320722D01*
X5281858Y20293009D01*
X5337454Y20259686D01*
X5389517Y20221073D01*
X5437544Y20177544D01*
X5481073Y20129517D01*
X5519686Y20077454D01*
X5553009Y20021858D01*
X5580722Y19963262D01*
X5602559Y19902233D01*
X5618309Y19839357D01*
X5627820Y19775240D01*
X5631000Y19710500D01*
X5631000Y18389500D01*
X5627820Y18324760D01*
X5618309Y18260643D01*
X5602559Y18197767D01*
X5580722Y18136738D01*
X5553009Y18078142D01*
X5519686Y18022546D01*
X5481073Y17970483D01*
X5437544Y17922456D01*
X5389517Y17878927D01*
X5337454Y17840314D01*
X5281858Y17806991D01*
X5223262Y17779278D01*
X5162233Y17757441D01*
X5099357Y17741691D01*
X5035240Y17732180D01*
X4970500Y17729000D01*
X2649500Y17729000D01*
X2584760Y17732180D01*
X2520643Y17741691D01*
X2457767Y17757441D01*
X2396738Y17779278D01*
X2338142Y17806991D01*
X2282546Y17840314D01*
X2230483Y17878927D01*
X2182456Y17922456D01*
X2138927Y17970483D01*
X2100314Y18022546D01*
X2066991Y18078142D01*
X2039278Y18136738D01*
X2017441Y18197767D01*
X2001691Y18260643D01*
X1992180Y18324760D01*
X1989000Y18389500D01*
X1989000Y19710500D01*
X1992180Y19775240D01*
X2001691Y19839357D01*
X2017441Y19902233D01*
X2039278Y19963262D01*
X2066991Y20021858D01*
X2100314Y20077454D01*
X2138927Y20129517D01*
X2182456Y20177544D01*
X2230483Y20221073D01*
X2282546Y20259686D01*
X2338142Y20293009D01*
X2396738Y20320722D01*
X2457767Y20342559D01*
X2520643Y20358309D01*
X2584760Y20367820D01*
X2649500Y20371000D01*
X4970500Y20371000D01*
X5035240Y20367820D01*
G37*
G36*
X5035240Y25367820D02*
G01*
X5099357Y25358309D01*
X5162233Y25342559D01*
X5223262Y25320722D01*
X5281858Y25293009D01*
X5337454Y25259686D01*
X5389517Y25221073D01*
X5437544Y25177544D01*
X5481073Y25129517D01*
X5519686Y25077454D01*
X5553009Y25021858D01*
X5580722Y24963262D01*
X5602559Y24902233D01*
X5618309Y24839357D01*
X5627820Y24775240D01*
X5631000Y24710500D01*
X5631000Y23389500D01*
X5627820Y23324760D01*
X5618309Y23260643D01*
X5602559Y23197767D01*
X5580722Y23136738D01*
X5553009Y23078142D01*
X5519686Y23022546D01*
X5481073Y22970483D01*
X5437544Y22922456D01*
X5389517Y22878927D01*
X5337454Y22840314D01*
X5281858Y22806991D01*
X5223262Y22779278D01*
X5162233Y22757441D01*
X5099357Y22741691D01*
X5035240Y22732180D01*
X4970500Y22729000D01*
X2649500Y22729000D01*
X2584760Y22732180D01*
X2520643Y22741691D01*
X2457767Y22757441D01*
X2396738Y22779278D01*
X2338142Y22806991D01*
X2282546Y22840314D01*
X2230483Y22878927D01*
X2182456Y22922456D01*
X2138927Y22970483D01*
X2100314Y23022546D01*
X2066991Y23078142D01*
X2039278Y23136738D01*
X2017441Y23197767D01*
X2001691Y23260643D01*
X1992180Y23324760D01*
X1989000Y23389500D01*
X1989000Y24710500D01*
X1992180Y24775240D01*
X2001691Y24839357D01*
X2017441Y24902233D01*
X2039278Y24963262D01*
X2066991Y25021858D01*
X2100314Y25077454D01*
X2138927Y25129517D01*
X2182456Y25177544D01*
X2230483Y25221073D01*
X2282546Y25259686D01*
X2338142Y25293009D01*
X2396738Y25320722D01*
X2457767Y25342559D01*
X2520643Y25358309D01*
X2584760Y25367820D01*
X2649500Y25371000D01*
X4970500Y25371000D01*
X5035240Y25367820D01*
G37*
%TD*%
D11*
%TO.C,C2*%
X64770000Y25440000D03*
X64770000Y27940000D03*
%TD*%
%TO.C,C1*%
X64770000Y5040000D03*
X64770000Y2540000D03*
%TD*%
D12*
%TO.C,U2*%
X59690000Y33020000D03*
X59690000Y30480000D03*
D13*
X59690000Y27940000D03*
D14*
X43030000Y30480000D03*
%TD*%
D12*
%TO.C,U1*%
X59690000Y10160000D03*
X59690000Y7620000D03*
D13*
X59690000Y5080000D03*
D14*
X43030000Y7620000D03*
%TD*%
D15*
%TO.C,R2*%
X77470000Y24130000D03*
D16*
X72390000Y24130000D03*
%TD*%
D15*
%TO.C,R1*%
X77470000Y13970000D03*
D16*
X72390000Y13970000D03*
%TD*%
D17*
%TO.C,M4*%
X2540000Y2540000D03*
%TD*%
%TO.C,M3*%
X99060000Y2540000D03*
%TD*%
%TO.C,M2*%
X99060000Y35560000D03*
%TD*%
%TO.C,M1*%
X2540000Y35560000D03*
%TD*%
D16*
%TO.C,C3*%
X33020000Y7540000D03*
D18*
X33020000Y2540000D03*
%TD*%
%TO.C,C4*%
X33020000Y30480000D03*
D16*
X33020000Y35480000D03*
%TD*%
%TO.C,C5*%
X72390000Y3850000D03*
D18*
X72390000Y6350000D03*
%TD*%
%TO.C,C6*%
X72390000Y30480000D03*
D16*
X72390000Y32980000D03*
%TD*%
D11*
%TO.C,C7*%
X64770000Y11430000D03*
X64770000Y8930000D03*
%TD*%
%TO.C,C8*%
X64770000Y34250000D03*
X64770000Y31750000D03*
%TD*%
D19*
%TO.C,D1*%
X25400000Y2540000D03*
D20*
X25400000Y15240000D03*
%TD*%
D19*
%TO.C,D2*%
X25400000Y22860000D03*
D20*
X25400000Y35560000D03*
%TD*%
%TO.C,D3*%
X17780000Y15240000D03*
D19*
X17780000Y2540000D03*
%TD*%
D20*
%TO.C,D4*%
X17780000Y35560000D03*
D19*
X17780000Y22860000D03*
%TD*%
D21*
%TO.C,D5*%
X81280000Y5080000D03*
D22*
X81280000Y7620000D03*
%TD*%
%TO.C,D6*%
X81280000Y30480000D03*
D21*
X81280000Y33020000D03*
%TD*%
M02*
