%TF.GenerationSoftware,KiCad,Pcbnew,5.1.5+dfsg1-2build2*%
%TF.CreationDate,2021-08-20T15:01:25+02:00*%
%TF.ProjectId,power-supply,706f7765-722d-4737-9570-706c792e6b69,1.2*%
%TF.SameCoordinates,PX4d83c00PY6a95280*%
%TF.FileFunction,Legend,Top*%
%TF.FilePolarity,Positive*%
%FSLAX46Y46*%
G04 Gerber Fmt 4.6, Leading zero omitted, Abs format (unit mm)*
G04 Created by KiCad (PCBNEW 5.1.5+dfsg1-2build2) date 2021-08-20 15:01:25*
%MOMM*%
%LPD*%
G04 APERTURE LIST*
%ADD10C,0.300000*%
%ADD11C,0.150000*%
%ADD12C,0.120000*%
%ADD13C,1.502000*%
%ADD14O,2.102000X2.007000*%
%ADD15R,2.102000X2.007000*%
%ADD16O,3.602000X3.602000*%
%ADD17O,1.702000X1.702000*%
%ADD18C,1.702000*%
%ADD19C,2.302000*%
%ADD20R,1.702000X1.702000*%
%ADD21R,2.902000X2.902000*%
%ADD22O,2.902000X2.902000*%
%ADD23R,1.902000X1.902000*%
%ADD24C,1.902000*%
G04 APERTURE END LIST*
D10*
X83141428Y10640715D02*
X83070000Y10712143D01*
X82998571Y10855000D01*
X82998571Y11212143D01*
X83070000Y11355000D01*
X83141428Y11426429D01*
X83284285Y11497858D01*
X83427142Y11497858D01*
X83641428Y11426429D01*
X84498571Y10569286D01*
X84498571Y11497858D01*
X82998571Y12426429D02*
X82998571Y12569286D01*
X83070000Y12712143D01*
X83141428Y12783572D01*
X83284285Y12855000D01*
X83570000Y12926429D01*
X83927142Y12926429D01*
X84212857Y12855000D01*
X84355714Y12783572D01*
X84427142Y12712143D01*
X84498571Y12569286D01*
X84498571Y12426429D01*
X84427142Y12283572D01*
X84355714Y12212143D01*
X84212857Y12140715D01*
X83927142Y12069286D01*
X83570000Y12069286D01*
X83284285Y12140715D01*
X83141428Y12212143D01*
X83070000Y12283572D01*
X82998571Y12426429D01*
X83141428Y13497858D02*
X83070000Y13569286D01*
X82998571Y13712143D01*
X82998571Y14069286D01*
X83070000Y14212143D01*
X83141428Y14283572D01*
X83284285Y14355000D01*
X83427142Y14355000D01*
X83641428Y14283572D01*
X84498571Y13426429D01*
X84498571Y14355000D01*
X84498571Y15783572D02*
X84498571Y14926429D01*
X84498571Y15355000D02*
X82998571Y15355000D01*
X83212857Y15212143D01*
X83355714Y15069286D01*
X83427142Y14926429D01*
X84498571Y17569286D02*
X83498571Y17569286D01*
X83784285Y17569286D02*
X83641428Y17640715D01*
X83570000Y17712143D01*
X83498571Y17855000D01*
X83498571Y17997858D01*
X84427142Y19069286D02*
X84498571Y18926429D01*
X84498571Y18640715D01*
X84427142Y18497858D01*
X84284285Y18426429D01*
X83712857Y18426429D01*
X83570000Y18497858D01*
X83498571Y18640715D01*
X83498571Y18926429D01*
X83570000Y19069286D01*
X83712857Y19140715D01*
X83855714Y19140715D01*
X83998571Y18426429D01*
X83498571Y19640715D02*
X84498571Y19997858D01*
X83498571Y20355000D01*
X84355714Y20926429D02*
X84427142Y20997858D01*
X84498571Y20926429D01*
X84427142Y20855000D01*
X84355714Y20926429D01*
X84498571Y20926429D01*
X84355714Y21640715D02*
X84427142Y21712143D01*
X84498571Y21640715D01*
X84427142Y21569286D01*
X84355714Y21640715D01*
X84498571Y21640715D01*
X83570000Y21640715D02*
X83641428Y21712143D01*
X83712857Y21640715D01*
X83641428Y21569286D01*
X83570000Y21640715D01*
X83712857Y21640715D01*
X84498571Y23140715D02*
X84498571Y22283572D01*
X84498571Y22712143D02*
X82998571Y22712143D01*
X83212857Y22569286D01*
X83355714Y22426429D01*
X83427142Y22283572D01*
X84355714Y23783572D02*
X84427142Y23855000D01*
X84498571Y23783572D01*
X84427142Y23712143D01*
X84355714Y23783572D01*
X84498571Y23783572D01*
X83141428Y24426429D02*
X83070000Y24497858D01*
X82998571Y24640715D01*
X82998571Y24997858D01*
X83070000Y25140715D01*
X83141428Y25212143D01*
X83284285Y25283572D01*
X83427142Y25283572D01*
X83641428Y25212143D01*
X84498571Y24355000D01*
X84498571Y25283572D01*
D11*
X6574404Y29075000D02*
X6479166Y29122620D01*
X6336309Y29122620D01*
X6193452Y29075000D01*
X6098214Y28979762D01*
X6050595Y28884524D01*
X6002976Y28694048D01*
X6002976Y28551191D01*
X6050595Y28360715D01*
X6098214Y28265477D01*
X6193452Y28170239D01*
X6336309Y28122620D01*
X6431547Y28122620D01*
X6574404Y28170239D01*
X6622023Y28217858D01*
X6622023Y28551191D01*
X6431547Y28551191D01*
X7050595Y28122620D02*
X7050595Y29122620D01*
X7622023Y28122620D01*
X7622023Y29122620D01*
X8098214Y28122620D02*
X8098214Y29122620D01*
X8336309Y29122620D01*
X8479166Y29075000D01*
X8574404Y28979762D01*
X8622023Y28884524D01*
X8669642Y28694048D01*
X8669642Y28551191D01*
X8622023Y28360715D01*
X8574404Y28265477D01*
X8479166Y28170239D01*
X8336309Y28122620D01*
X8098214Y28122620D01*
D10*
X87816428Y19800000D02*
X87673571Y19871429D01*
X87459285Y19871429D01*
X87245000Y19800000D01*
X87102142Y19657143D01*
X87030714Y19514286D01*
X86959285Y19228572D01*
X86959285Y19014286D01*
X87030714Y18728572D01*
X87102142Y18585715D01*
X87245000Y18442858D01*
X87459285Y18371429D01*
X87602142Y18371429D01*
X87816428Y18442858D01*
X87887857Y18514286D01*
X87887857Y19014286D01*
X87602142Y19014286D01*
X88530714Y18371429D02*
X88530714Y19871429D01*
X89387857Y18371429D01*
X89387857Y19871429D01*
X90102142Y18371429D02*
X90102142Y19871429D01*
X90459285Y19871429D01*
X90673571Y19800000D01*
X90816428Y19657143D01*
X90887857Y19514286D01*
X90959285Y19228572D01*
X90959285Y19014286D01*
X90887857Y18728572D01*
X90816428Y18585715D01*
X90673571Y18442858D01*
X90459285Y18371429D01*
X90102142Y18371429D01*
X42228571Y22207143D02*
X43752380Y22207143D01*
X42990476Y21445239D02*
X42990476Y22969048D01*
X45752380Y21445239D02*
X44609523Y21445239D01*
X45180952Y21445239D02*
X45180952Y23445239D01*
X44990476Y23159524D01*
X44800000Y22969048D01*
X44609523Y22873810D01*
X47561904Y23445239D02*
X46609523Y23445239D01*
X46514285Y22492858D01*
X46609523Y22588096D01*
X46800000Y22683334D01*
X47276190Y22683334D01*
X47466666Y22588096D01*
X47561904Y22492858D01*
X47657142Y22302381D01*
X47657142Y21826191D01*
X47561904Y21635715D01*
X47466666Y21540477D01*
X47276190Y21445239D01*
X46800000Y21445239D01*
X46609523Y21540477D01*
X46514285Y21635715D01*
X48228571Y23445239D02*
X48895238Y21445239D01*
X49561904Y23445239D01*
X51657142Y23540477D02*
X49942857Y20969048D01*
X52323809Y22207143D02*
X53847619Y22207143D01*
X55847619Y21445239D02*
X54704761Y21445239D01*
X55276190Y21445239D02*
X55276190Y23445239D01*
X55085714Y23159524D01*
X54895238Y22969048D01*
X54704761Y22873810D01*
X57657142Y23445239D02*
X56704761Y23445239D01*
X56609523Y22492858D01*
X56704761Y22588096D01*
X56895238Y22683334D01*
X57371428Y22683334D01*
X57561904Y22588096D01*
X57657142Y22492858D01*
X57752380Y22302381D01*
X57752380Y21826191D01*
X57657142Y21635715D01*
X57561904Y21540477D01*
X57371428Y21445239D01*
X56895238Y21445239D01*
X56704761Y21540477D01*
X56609523Y21635715D01*
X58323809Y23445239D02*
X58990476Y21445239D01*
X59657142Y23445239D01*
X34228571Y18240477D02*
X34419047Y18145239D01*
X34800000Y18145239D01*
X34990476Y18240477D01*
X35085714Y18430953D01*
X35085714Y18526191D01*
X34990476Y18716667D01*
X34800000Y18811905D01*
X34514285Y18811905D01*
X34323809Y18907143D01*
X34228571Y19097620D01*
X34228571Y19192858D01*
X34323809Y19383334D01*
X34514285Y19478572D01*
X34800000Y19478572D01*
X34990476Y19383334D01*
X35752380Y19478572D02*
X36228571Y18145239D01*
X36704761Y19478572D02*
X36228571Y18145239D01*
X36038095Y17669048D01*
X35942857Y17573810D01*
X35752380Y17478572D01*
X37466666Y18145239D02*
X37466666Y19478572D01*
X37466666Y19288096D02*
X37561904Y19383334D01*
X37752380Y19478572D01*
X38038095Y19478572D01*
X38228571Y19383334D01*
X38323809Y19192858D01*
X38323809Y18145239D01*
X38323809Y19192858D02*
X38419047Y19383334D01*
X38609523Y19478572D01*
X38895238Y19478572D01*
X39085714Y19383334D01*
X39180952Y19192858D01*
X39180952Y18145239D01*
X40895238Y18240477D02*
X40704761Y18145239D01*
X40323809Y18145239D01*
X40133333Y18240477D01*
X40038095Y18430953D01*
X40038095Y19192858D01*
X40133333Y19383334D01*
X40323809Y19478572D01*
X40704761Y19478572D01*
X40895238Y19383334D01*
X40990476Y19192858D01*
X40990476Y19002381D01*
X40038095Y18811905D01*
X41561904Y19478572D02*
X42323809Y19478572D01*
X41847619Y20145239D02*
X41847619Y18430953D01*
X41942857Y18240477D01*
X42133333Y18145239D01*
X42323809Y18145239D01*
X42990476Y18145239D02*
X42990476Y19478572D01*
X42990476Y19097620D02*
X43085714Y19288096D01*
X43180952Y19383334D01*
X43371428Y19478572D01*
X43561904Y19478572D01*
X44228571Y18145239D02*
X44228571Y19478572D01*
X44228571Y20145239D02*
X44133333Y20050000D01*
X44228571Y19954762D01*
X44323809Y20050000D01*
X44228571Y20145239D01*
X44228571Y19954762D01*
X46038095Y18240477D02*
X45847619Y18145239D01*
X45466666Y18145239D01*
X45276190Y18240477D01*
X45180952Y18335715D01*
X45085714Y18526191D01*
X45085714Y19097620D01*
X45180952Y19288096D01*
X45276190Y19383334D01*
X45466666Y19478572D01*
X45847619Y19478572D01*
X46038095Y19383334D01*
X48419047Y19478572D02*
X48419047Y17478572D01*
X48419047Y19383334D02*
X48609523Y19478572D01*
X48990476Y19478572D01*
X49180952Y19383334D01*
X49276190Y19288096D01*
X49371428Y19097620D01*
X49371428Y18526191D01*
X49276190Y18335715D01*
X49180952Y18240477D01*
X48990476Y18145239D01*
X48609523Y18145239D01*
X48419047Y18240477D01*
X50514285Y18145239D02*
X50323809Y18240477D01*
X50228571Y18335715D01*
X50133333Y18526191D01*
X50133333Y19097620D01*
X50228571Y19288096D01*
X50323809Y19383334D01*
X50514285Y19478572D01*
X50800000Y19478572D01*
X50990476Y19383334D01*
X51085714Y19288096D01*
X51180952Y19097620D01*
X51180952Y18526191D01*
X51085714Y18335715D01*
X50990476Y18240477D01*
X50800000Y18145239D01*
X50514285Y18145239D01*
X51847619Y19478572D02*
X52228571Y18145239D01*
X52609523Y19097620D01*
X52990476Y18145239D01*
X53371428Y19478572D01*
X54895238Y18240477D02*
X54704761Y18145239D01*
X54323809Y18145239D01*
X54133333Y18240477D01*
X54038095Y18430953D01*
X54038095Y19192858D01*
X54133333Y19383334D01*
X54323809Y19478572D01*
X54704761Y19478572D01*
X54895238Y19383334D01*
X54990476Y19192858D01*
X54990476Y19002381D01*
X54038095Y18811905D01*
X55847619Y18145239D02*
X55847619Y19478572D01*
X55847619Y19097620D02*
X55942857Y19288096D01*
X56038095Y19383334D01*
X56228571Y19478572D01*
X56419047Y19478572D01*
X58514285Y18240477D02*
X58704761Y18145239D01*
X59085714Y18145239D01*
X59276190Y18240477D01*
X59371428Y18430953D01*
X59371428Y18526191D01*
X59276190Y18716667D01*
X59085714Y18811905D01*
X58800000Y18811905D01*
X58609523Y18907143D01*
X58514285Y19097620D01*
X58514285Y19192858D01*
X58609523Y19383334D01*
X58800000Y19478572D01*
X59085714Y19478572D01*
X59276190Y19383334D01*
X61085714Y19478572D02*
X61085714Y18145239D01*
X60228571Y19478572D02*
X60228571Y18430953D01*
X60323809Y18240477D01*
X60514285Y18145239D01*
X60800000Y18145239D01*
X60990476Y18240477D01*
X61085714Y18335715D01*
X62038095Y19478572D02*
X62038095Y17478572D01*
X62038095Y19383334D02*
X62228571Y19478572D01*
X62609523Y19478572D01*
X62800000Y19383334D01*
X62895238Y19288096D01*
X62990476Y19097620D01*
X62990476Y18526191D01*
X62895238Y18335715D01*
X62800000Y18240477D01*
X62609523Y18145239D01*
X62228571Y18145239D01*
X62038095Y18240477D01*
X63847619Y19478572D02*
X63847619Y17478572D01*
X63847619Y19383334D02*
X64038095Y19478572D01*
X64419047Y19478572D01*
X64609523Y19383334D01*
X64704761Y19288096D01*
X64800000Y19097620D01*
X64800000Y18526191D01*
X64704761Y18335715D01*
X64609523Y18240477D01*
X64419047Y18145239D01*
X64038095Y18145239D01*
X63847619Y18240477D01*
X65942857Y18145239D02*
X65752380Y18240477D01*
X65657142Y18430953D01*
X65657142Y20145239D01*
X66514285Y19478572D02*
X66990476Y18145239D01*
X67466666Y19478572D02*
X66990476Y18145239D01*
X66800000Y17669048D01*
X66704761Y17573810D01*
X66514285Y17478572D01*
X34133333Y14845239D02*
X34133333Y16845239D01*
X34133333Y16083334D02*
X34323809Y16178572D01*
X34704761Y16178572D01*
X34895238Y16083334D01*
X34990476Y15988096D01*
X35085714Y15797620D01*
X35085714Y15226191D01*
X34990476Y15035715D01*
X34895238Y14940477D01*
X34704761Y14845239D01*
X34323809Y14845239D01*
X34133333Y14940477D01*
X35752380Y16178572D02*
X36228571Y14845239D01*
X36704761Y16178572D02*
X36228571Y14845239D01*
X36038095Y14369048D01*
X35942857Y14273810D01*
X35752380Y14178572D01*
X38895238Y14940477D02*
X39180952Y14845239D01*
X39657142Y14845239D01*
X39847619Y14940477D01*
X39942857Y15035715D01*
X40038095Y15226191D01*
X40038095Y15416667D01*
X39942857Y15607143D01*
X39847619Y15702381D01*
X39657142Y15797620D01*
X39276190Y15892858D01*
X39085714Y15988096D01*
X38990476Y16083334D01*
X38895238Y16273810D01*
X38895238Y16464286D01*
X38990476Y16654762D01*
X39085714Y16750000D01*
X39276190Y16845239D01*
X39752380Y16845239D01*
X40038095Y16750000D01*
X42228571Y14654762D02*
X42038095Y14750000D01*
X41847619Y14940477D01*
X41561904Y15226191D01*
X41371428Y15321429D01*
X41180952Y15321429D01*
X41276190Y14845239D02*
X41085714Y14940477D01*
X40895238Y15130953D01*
X40800000Y15511905D01*
X40800000Y16178572D01*
X40895238Y16559524D01*
X41085714Y16750000D01*
X41276190Y16845239D01*
X41657142Y16845239D01*
X41847619Y16750000D01*
X42038095Y16559524D01*
X42133333Y16178572D01*
X42133333Y15511905D01*
X42038095Y15130953D01*
X41847619Y14940477D01*
X41657142Y14845239D01*
X41276190Y14845239D01*
X42800000Y16845239D02*
X44133333Y16845239D01*
X43276190Y14845239D01*
X44895238Y15892858D02*
X45561904Y15892858D01*
X45847619Y14845239D02*
X44895238Y14845239D01*
X44895238Y16845239D01*
X45847619Y16845239D01*
X48038095Y14654762D02*
X47847619Y14750000D01*
X47657142Y14940477D01*
X47371428Y15226191D01*
X47180952Y15321429D01*
X46990476Y15321429D01*
X47085714Y14845239D02*
X46895238Y14940477D01*
X46704761Y15130953D01*
X46609523Y15511905D01*
X46609523Y16178572D01*
X46704761Y16559524D01*
X46895238Y16750000D01*
X47085714Y16845239D01*
X47466666Y16845239D01*
X47657142Y16750000D01*
X47847619Y16559524D01*
X47942857Y16178572D01*
X47942857Y15511905D01*
X47847619Y15130953D01*
X47657142Y14940477D01*
X47466666Y14845239D01*
X47085714Y14845239D01*
X48800000Y15892858D02*
X49466666Y15892858D01*
X49752380Y14845239D02*
X48800000Y14845239D01*
X48800000Y16845239D01*
X49752380Y16845239D01*
X53276190Y15035715D02*
X53180952Y14940477D01*
X52895238Y14845239D01*
X52704761Y14845239D01*
X52419047Y14940477D01*
X52228571Y15130953D01*
X52133333Y15321429D01*
X52038095Y15702381D01*
X52038095Y15988096D01*
X52133333Y16369048D01*
X52228571Y16559524D01*
X52419047Y16750000D01*
X52704761Y16845239D01*
X52895238Y16845239D01*
X53180952Y16750000D01*
X53276190Y16654762D01*
X55276190Y15035715D02*
X55180952Y14940477D01*
X54895238Y14845239D01*
X54704761Y14845239D01*
X54419047Y14940477D01*
X54228571Y15130953D01*
X54133333Y15321429D01*
X54038095Y15702381D01*
X54038095Y15988096D01*
X54133333Y16369048D01*
X54228571Y16559524D01*
X54419047Y16750000D01*
X54704761Y16845239D01*
X54895238Y16845239D01*
X55180952Y16750000D01*
X55276190Y16654762D01*
X56133333Y15607143D02*
X57657142Y15607143D01*
X59276190Y15892858D02*
X59561904Y15797620D01*
X59657142Y15702381D01*
X59752380Y15511905D01*
X59752380Y15226191D01*
X59657142Y15035715D01*
X59561904Y14940477D01*
X59371428Y14845239D01*
X58609523Y14845239D01*
X58609523Y16845239D01*
X59276190Y16845239D01*
X59466666Y16750000D01*
X59561904Y16654762D01*
X59657142Y16464286D01*
X59657142Y16273810D01*
X59561904Y16083334D01*
X59466666Y15988096D01*
X59276190Y15892858D01*
X58609523Y15892858D01*
X60990476Y15797620D02*
X60990476Y14845239D01*
X60323809Y16845239D02*
X60990476Y15797620D01*
X61657142Y16845239D01*
X62323809Y15607143D02*
X63847619Y15607143D01*
X64704761Y14940477D02*
X64990476Y14845239D01*
X65466666Y14845239D01*
X65657142Y14940477D01*
X65752380Y15035715D01*
X65847619Y15226191D01*
X65847619Y15416667D01*
X65752380Y15607143D01*
X65657142Y15702381D01*
X65466666Y15797620D01*
X65085714Y15892858D01*
X64895238Y15988096D01*
X64800000Y16083334D01*
X64704761Y16273810D01*
X64704761Y16464286D01*
X64800000Y16654762D01*
X64895238Y16750000D01*
X65085714Y16845239D01*
X65561904Y16845239D01*
X65847619Y16750000D01*
X66609523Y15416667D02*
X67561904Y15416667D01*
X66419047Y14845239D02*
X67085714Y16845239D01*
X67752380Y14845239D01*
D11*
X6002976Y32218334D02*
X6479166Y32218334D01*
X5907738Y31932620D02*
X6241071Y32932620D01*
X6574404Y31932620D01*
X7479166Y32027858D02*
X7431547Y31980239D01*
X7288690Y31932620D01*
X7193452Y31932620D01*
X7050595Y31980239D01*
X6955357Y32075477D01*
X6907738Y32170715D01*
X6860119Y32361191D01*
X6860119Y32504048D01*
X6907738Y32694524D01*
X6955357Y32789762D01*
X7050595Y32885000D01*
X7193452Y32932620D01*
X7288690Y32932620D01*
X7431547Y32885000D01*
X7479166Y32837381D01*
X6002976Y30313334D02*
X6479166Y30313334D01*
X5907738Y30027620D02*
X6241071Y31027620D01*
X6574404Y30027620D01*
X7479166Y30122858D02*
X7431547Y30075239D01*
X7288690Y30027620D01*
X7193452Y30027620D01*
X7050595Y30075239D01*
X6955357Y30170477D01*
X6907738Y30265715D01*
X6860119Y30456191D01*
X6860119Y30599048D01*
X6907738Y30789524D01*
X6955357Y30884762D01*
X7050595Y30980000D01*
X7193452Y31027620D01*
X7288690Y31027620D01*
X7431547Y30980000D01*
X7479166Y30932381D01*
D10*
X97028095Y29067143D02*
X98551904Y29067143D01*
X97028095Y8747143D02*
X98551904Y8747143D01*
X97790000Y7985239D02*
X97790000Y9509048D01*
D12*
%TO.C,J2*%
X99520000Y19050000D02*
X98920000Y19550000D01*
X98920000Y18550000D02*
X99520000Y19050000D01*
X95170000Y22500000D02*
X95170000Y25600000D01*
X95170000Y17500000D02*
X95170000Y20600000D01*
X95170000Y12500000D02*
X95170000Y15600000D01*
X94770000Y22500000D02*
X94770000Y25600000D01*
X94770000Y17500000D02*
X94770000Y20600000D01*
X94770000Y12500000D02*
X94770000Y15600000D01*
X96520000Y24050000D02*
G75*
G03X96520000Y24050000I-1550000J0D01*
G01*
X96520000Y19050000D02*
G75*
G03X96520000Y19050000I-1550000J0D01*
G01*
X96520000Y14050000D02*
G75*
G03X96520000Y14050000I-1550000J0D01*
G01*
X93420000Y11550000D02*
X93420000Y26550000D01*
X96520000Y11550000D02*
X96520000Y26550000D01*
X99620000Y26550000D02*
X92020000Y26550000D01*
X99620000Y11550000D02*
X99620000Y26550000D01*
X92020000Y11550000D02*
X99620000Y11550000D01*
X92020000Y11550000D02*
X92020000Y26550000D01*
%TO.C,J1*%
X810000Y19050000D02*
X1410000Y18550000D01*
X1410000Y19550000D02*
X810000Y19050000D01*
X5160000Y15600000D02*
X5160000Y12500000D01*
X5160000Y20600000D02*
X5160000Y17500000D01*
X5160000Y25600000D02*
X5160000Y22500000D01*
X5560000Y15600000D02*
X5560000Y12500000D01*
X5560000Y20600000D02*
X5560000Y17500000D01*
X5560000Y25600000D02*
X5560000Y22500000D01*
X6910000Y14050000D02*
G75*
G03X6910000Y14050000I-1550000J0D01*
G01*
X6910000Y19050000D02*
G75*
G03X6910000Y19050000I-1550000J0D01*
G01*
X6910000Y24050000D02*
G75*
G03X6910000Y24050000I-1550000J0D01*
G01*
X6910000Y26550000D02*
X6910000Y11550000D01*
X3810000Y26550000D02*
X3810000Y11550000D01*
X710000Y11550000D02*
X8310000Y11550000D01*
X710000Y26550000D02*
X710000Y11550000D01*
X8310000Y26550000D02*
X710000Y26550000D01*
X8310000Y26550000D02*
X8310000Y11550000D01*
%TO.C,C2*%
X66390000Y24270000D02*
X63150000Y24270000D01*
X66390000Y29110000D02*
X63150000Y29110000D01*
X63150000Y29110000D02*
X63150000Y24270000D01*
X66390000Y29110000D02*
X66390000Y24270000D01*
%TO.C,C1*%
X63150000Y6210000D02*
X66390000Y6210000D01*
X63150000Y1370000D02*
X66390000Y1370000D01*
X66390000Y1370000D02*
X66390000Y6210000D01*
X63150000Y1370000D02*
X63150000Y6210000D01*
%TO.C,U2*%
X56000000Y33020000D02*
X58540000Y33020000D01*
X56000000Y30480000D02*
X58540000Y30480000D01*
X56000000Y27940000D02*
X58540000Y27940000D01*
X40110000Y35600000D02*
X56000000Y35600000D01*
X40110000Y25360000D02*
X56000000Y25360000D01*
X40110000Y25360000D02*
X40110000Y35600000D01*
X56000000Y25360000D02*
X56000000Y35600000D01*
%TO.C,U1*%
X56000000Y10160000D02*
X58540000Y10160000D01*
X56000000Y7620000D02*
X58540000Y7620000D01*
X56000000Y5080000D02*
X58540000Y5080000D01*
X40110000Y12740000D02*
X56000000Y12740000D01*
X40110000Y2500000D02*
X56000000Y2500000D01*
X40110000Y2500000D02*
X40110000Y12740000D01*
X56000000Y2500000D02*
X56000000Y12740000D01*
%TO.C,R2*%
X73760000Y24130000D02*
X76370000Y24130000D01*
X73760000Y24130000D02*
G75*
G03X73760000Y24130000I-1370000J0D01*
G01*
%TO.C,R1*%
X73760000Y13970000D02*
X76370000Y13970000D01*
X73760000Y13970000D02*
G75*
G03X73760000Y13970000I-1370000J0D01*
G01*
%TO.C,C3*%
X30305000Y1030302D02*
X31105000Y1030302D01*
X30705000Y630302D02*
X30705000Y1430302D01*
X32487000Y9121000D02*
X33553000Y9121000D01*
X32252000Y9081000D02*
X33788000Y9081000D01*
X32072000Y9041000D02*
X33968000Y9041000D01*
X31922000Y9001000D02*
X34118000Y9001000D01*
X31791000Y8961000D02*
X34249000Y8961000D01*
X31674000Y8921000D02*
X34366000Y8921000D01*
X31567000Y8881000D02*
X34473000Y8881000D01*
X31468000Y8841000D02*
X34572000Y8841000D01*
X31375000Y8801000D02*
X34665000Y8801000D01*
X31289000Y8761000D02*
X34751000Y8761000D01*
X31207000Y8721000D02*
X34833000Y8721000D01*
X31130000Y8681000D02*
X34910000Y8681000D01*
X31056000Y8641000D02*
X34984000Y8641000D01*
X30986000Y8601000D02*
X35054000Y8601000D01*
X34060000Y8561000D02*
X35122000Y8561000D01*
X30918000Y8561000D02*
X31980000Y8561000D01*
X34060000Y8521000D02*
X35186000Y8521000D01*
X30854000Y8521000D02*
X31980000Y8521000D01*
X34060000Y8481000D02*
X35248000Y8481000D01*
X30792000Y8481000D02*
X31980000Y8481000D01*
X34060000Y8441000D02*
X35307000Y8441000D01*
X30733000Y8441000D02*
X31980000Y8441000D01*
X34060000Y8401000D02*
X35365000Y8401000D01*
X30675000Y8401000D02*
X31980000Y8401000D01*
X34060000Y8361000D02*
X35420000Y8361000D01*
X30620000Y8361000D02*
X31980000Y8361000D01*
X34060000Y8321000D02*
X35474000Y8321000D01*
X30566000Y8321000D02*
X31980000Y8321000D01*
X34060000Y8281000D02*
X35525000Y8281000D01*
X30515000Y8281000D02*
X31980000Y8281000D01*
X34060000Y8241000D02*
X35576000Y8241000D01*
X30464000Y8241000D02*
X31980000Y8241000D01*
X34060000Y8201000D02*
X35624000Y8201000D01*
X30416000Y8201000D02*
X31980000Y8201000D01*
X34060000Y8161000D02*
X35671000Y8161000D01*
X30369000Y8161000D02*
X31980000Y8161000D01*
X34060000Y8121000D02*
X35717000Y8121000D01*
X30323000Y8121000D02*
X31980000Y8121000D01*
X34060000Y8081000D02*
X35761000Y8081000D01*
X30279000Y8081000D02*
X31980000Y8081000D01*
X34060000Y8041000D02*
X35804000Y8041000D01*
X30236000Y8041000D02*
X31980000Y8041000D01*
X34060000Y8001000D02*
X35846000Y8001000D01*
X30194000Y8001000D02*
X31980000Y8001000D01*
X34060000Y7961000D02*
X35887000Y7961000D01*
X30153000Y7961000D02*
X31980000Y7961000D01*
X34060000Y7921000D02*
X35927000Y7921000D01*
X30113000Y7921000D02*
X31980000Y7921000D01*
X34060000Y7881000D02*
X35965000Y7881000D01*
X30075000Y7881000D02*
X31980000Y7881000D01*
X34060000Y7841000D02*
X36003000Y7841000D01*
X30037000Y7841000D02*
X31980000Y7841000D01*
X34060000Y7801000D02*
X36039000Y7801000D01*
X30001000Y7801000D02*
X31980000Y7801000D01*
X34060000Y7761000D02*
X36075000Y7761000D01*
X29965000Y7761000D02*
X31980000Y7761000D01*
X34060000Y7721000D02*
X36110000Y7721000D01*
X29930000Y7721000D02*
X31980000Y7721000D01*
X34060000Y7681000D02*
X36144000Y7681000D01*
X29896000Y7681000D02*
X31980000Y7681000D01*
X34060000Y7641000D02*
X36176000Y7641000D01*
X29864000Y7641000D02*
X31980000Y7641000D01*
X34060000Y7601000D02*
X36209000Y7601000D01*
X29831000Y7601000D02*
X31980000Y7601000D01*
X34060000Y7561000D02*
X36240000Y7561000D01*
X29800000Y7561000D02*
X31980000Y7561000D01*
X34060000Y7521000D02*
X36270000Y7521000D01*
X29770000Y7521000D02*
X31980000Y7521000D01*
X34060000Y7481000D02*
X36300000Y7481000D01*
X29740000Y7481000D02*
X31980000Y7481000D01*
X34060000Y7441000D02*
X36329000Y7441000D01*
X29711000Y7441000D02*
X31980000Y7441000D01*
X34060000Y7401000D02*
X36358000Y7401000D01*
X29682000Y7401000D02*
X31980000Y7401000D01*
X34060000Y7361000D02*
X36385000Y7361000D01*
X29655000Y7361000D02*
X31980000Y7361000D01*
X34060000Y7321000D02*
X36412000Y7321000D01*
X29628000Y7321000D02*
X31980000Y7321000D01*
X34060000Y7281000D02*
X36438000Y7281000D01*
X29602000Y7281000D02*
X31980000Y7281000D01*
X34060000Y7241000D02*
X36464000Y7241000D01*
X29576000Y7241000D02*
X31980000Y7241000D01*
X34060000Y7201000D02*
X36489000Y7201000D01*
X29551000Y7201000D02*
X31980000Y7201000D01*
X34060000Y7161000D02*
X36513000Y7161000D01*
X29527000Y7161000D02*
X31980000Y7161000D01*
X34060000Y7121000D02*
X36537000Y7121000D01*
X29503000Y7121000D02*
X31980000Y7121000D01*
X34060000Y7081000D02*
X36560000Y7081000D01*
X29480000Y7081000D02*
X31980000Y7081000D01*
X34060000Y7041000D02*
X36582000Y7041000D01*
X29458000Y7041000D02*
X31980000Y7041000D01*
X34060000Y7001000D02*
X36604000Y7001000D01*
X29436000Y7001000D02*
X31980000Y7001000D01*
X34060000Y6961000D02*
X36626000Y6961000D01*
X29414000Y6961000D02*
X31980000Y6961000D01*
X34060000Y6921000D02*
X36647000Y6921000D01*
X29393000Y6921000D02*
X31980000Y6921000D01*
X34060000Y6881000D02*
X36667000Y6881000D01*
X29373000Y6881000D02*
X31980000Y6881000D01*
X34060000Y6841000D02*
X36686000Y6841000D01*
X29354000Y6841000D02*
X31980000Y6841000D01*
X34060000Y6801000D02*
X36706000Y6801000D01*
X29334000Y6801000D02*
X31980000Y6801000D01*
X34060000Y6761000D02*
X36724000Y6761000D01*
X29316000Y6761000D02*
X31980000Y6761000D01*
X34060000Y6721000D02*
X36742000Y6721000D01*
X29298000Y6721000D02*
X31980000Y6721000D01*
X34060000Y6681000D02*
X36760000Y6681000D01*
X29280000Y6681000D02*
X31980000Y6681000D01*
X34060000Y6641000D02*
X36777000Y6641000D01*
X29263000Y6641000D02*
X31980000Y6641000D01*
X34060000Y6601000D02*
X36794000Y6601000D01*
X29246000Y6601000D02*
X31980000Y6601000D01*
X34060000Y6561000D02*
X36810000Y6561000D01*
X29230000Y6561000D02*
X31980000Y6561000D01*
X34060000Y6521000D02*
X36825000Y6521000D01*
X29215000Y6521000D02*
X31980000Y6521000D01*
X29199000Y6481000D02*
X36841000Y6481000D01*
X29185000Y6441000D02*
X36855000Y6441000D01*
X29170000Y6401000D02*
X36870000Y6401000D01*
X29157000Y6361000D02*
X36883000Y6361000D01*
X29143000Y6321000D02*
X36897000Y6321000D01*
X29131000Y6281000D02*
X36909000Y6281000D01*
X29118000Y6241000D02*
X36922000Y6241000D01*
X29106000Y6201000D02*
X36934000Y6201000D01*
X29095000Y6161000D02*
X36945000Y6161000D01*
X29084000Y6121000D02*
X36956000Y6121000D01*
X29073000Y6081000D02*
X36967000Y6081000D01*
X29063000Y6041000D02*
X36977000Y6041000D01*
X29053000Y6001000D02*
X36987000Y6001000D01*
X29044000Y5961000D02*
X36996000Y5961000D01*
X29035000Y5921000D02*
X37005000Y5921000D01*
X29026000Y5881000D02*
X37014000Y5881000D01*
X29018000Y5841000D02*
X37022000Y5841000D01*
X29010000Y5801000D02*
X37030000Y5801000D01*
X29003000Y5761000D02*
X37037000Y5761000D01*
X28996000Y5720000D02*
X37044000Y5720000D01*
X28990000Y5680000D02*
X37050000Y5680000D01*
X28983000Y5640000D02*
X37057000Y5640000D01*
X28978000Y5600000D02*
X37062000Y5600000D01*
X28972000Y5560000D02*
X37068000Y5560000D01*
X28968000Y5520000D02*
X37072000Y5520000D01*
X28963000Y5480000D02*
X37077000Y5480000D01*
X28959000Y5440000D02*
X37081000Y5440000D01*
X28955000Y5400000D02*
X37085000Y5400000D01*
X28952000Y5360000D02*
X37088000Y5360000D01*
X28949000Y5320000D02*
X37091000Y5320000D01*
X28946000Y5280000D02*
X37094000Y5280000D01*
X28944000Y5240000D02*
X37096000Y5240000D01*
X28943000Y5200000D02*
X37097000Y5200000D01*
X28941000Y5160000D02*
X37099000Y5160000D01*
X28940000Y5120000D02*
X37100000Y5120000D01*
X28940000Y5080000D02*
X37100000Y5080000D01*
X28940000Y5040000D02*
X37100000Y5040000D01*
X37140000Y5040000D02*
G75*
G03X37140000Y5040000I-4120000J0D01*
G01*
%TO.C,C4*%
X37140000Y32980000D02*
G75*
G03X37140000Y32980000I-4120000J0D01*
G01*
X28940000Y32980000D02*
X37100000Y32980000D01*
X28940000Y33020000D02*
X37100000Y33020000D01*
X28940000Y33060000D02*
X37100000Y33060000D01*
X28941000Y33100000D02*
X37099000Y33100000D01*
X28943000Y33140000D02*
X37097000Y33140000D01*
X28944000Y33180000D02*
X37096000Y33180000D01*
X28946000Y33220000D02*
X37094000Y33220000D01*
X28949000Y33260000D02*
X37091000Y33260000D01*
X28952000Y33300000D02*
X37088000Y33300000D01*
X28955000Y33340000D02*
X37085000Y33340000D01*
X28959000Y33380000D02*
X37081000Y33380000D01*
X28963000Y33420000D02*
X37077000Y33420000D01*
X28968000Y33460000D02*
X37072000Y33460000D01*
X28972000Y33500000D02*
X37068000Y33500000D01*
X28978000Y33540000D02*
X37062000Y33540000D01*
X28983000Y33580000D02*
X37057000Y33580000D01*
X28990000Y33620000D02*
X37050000Y33620000D01*
X28996000Y33660000D02*
X37044000Y33660000D01*
X29003000Y33701000D02*
X37037000Y33701000D01*
X29010000Y33741000D02*
X37030000Y33741000D01*
X29018000Y33781000D02*
X37022000Y33781000D01*
X29026000Y33821000D02*
X37014000Y33821000D01*
X29035000Y33861000D02*
X37005000Y33861000D01*
X29044000Y33901000D02*
X36996000Y33901000D01*
X29053000Y33941000D02*
X36987000Y33941000D01*
X29063000Y33981000D02*
X36977000Y33981000D01*
X29073000Y34021000D02*
X36967000Y34021000D01*
X29084000Y34061000D02*
X36956000Y34061000D01*
X29095000Y34101000D02*
X36945000Y34101000D01*
X29106000Y34141000D02*
X36934000Y34141000D01*
X29118000Y34181000D02*
X36922000Y34181000D01*
X29131000Y34221000D02*
X36909000Y34221000D01*
X29143000Y34261000D02*
X36897000Y34261000D01*
X29157000Y34301000D02*
X36883000Y34301000D01*
X29170000Y34341000D02*
X36870000Y34341000D01*
X29185000Y34381000D02*
X36855000Y34381000D01*
X29199000Y34421000D02*
X36841000Y34421000D01*
X29215000Y34461000D02*
X31980000Y34461000D01*
X34060000Y34461000D02*
X36825000Y34461000D01*
X29230000Y34501000D02*
X31980000Y34501000D01*
X34060000Y34501000D02*
X36810000Y34501000D01*
X29246000Y34541000D02*
X31980000Y34541000D01*
X34060000Y34541000D02*
X36794000Y34541000D01*
X29263000Y34581000D02*
X31980000Y34581000D01*
X34060000Y34581000D02*
X36777000Y34581000D01*
X29280000Y34621000D02*
X31980000Y34621000D01*
X34060000Y34621000D02*
X36760000Y34621000D01*
X29298000Y34661000D02*
X31980000Y34661000D01*
X34060000Y34661000D02*
X36742000Y34661000D01*
X29316000Y34701000D02*
X31980000Y34701000D01*
X34060000Y34701000D02*
X36724000Y34701000D01*
X29334000Y34741000D02*
X31980000Y34741000D01*
X34060000Y34741000D02*
X36706000Y34741000D01*
X29354000Y34781000D02*
X31980000Y34781000D01*
X34060000Y34781000D02*
X36686000Y34781000D01*
X29373000Y34821000D02*
X31980000Y34821000D01*
X34060000Y34821000D02*
X36667000Y34821000D01*
X29393000Y34861000D02*
X31980000Y34861000D01*
X34060000Y34861000D02*
X36647000Y34861000D01*
X29414000Y34901000D02*
X31980000Y34901000D01*
X34060000Y34901000D02*
X36626000Y34901000D01*
X29436000Y34941000D02*
X31980000Y34941000D01*
X34060000Y34941000D02*
X36604000Y34941000D01*
X29458000Y34981000D02*
X31980000Y34981000D01*
X34060000Y34981000D02*
X36582000Y34981000D01*
X29480000Y35021000D02*
X31980000Y35021000D01*
X34060000Y35021000D02*
X36560000Y35021000D01*
X29503000Y35061000D02*
X31980000Y35061000D01*
X34060000Y35061000D02*
X36537000Y35061000D01*
X29527000Y35101000D02*
X31980000Y35101000D01*
X34060000Y35101000D02*
X36513000Y35101000D01*
X29551000Y35141000D02*
X31980000Y35141000D01*
X34060000Y35141000D02*
X36489000Y35141000D01*
X29576000Y35181000D02*
X31980000Y35181000D01*
X34060000Y35181000D02*
X36464000Y35181000D01*
X29602000Y35221000D02*
X31980000Y35221000D01*
X34060000Y35221000D02*
X36438000Y35221000D01*
X29628000Y35261000D02*
X31980000Y35261000D01*
X34060000Y35261000D02*
X36412000Y35261000D01*
X29655000Y35301000D02*
X31980000Y35301000D01*
X34060000Y35301000D02*
X36385000Y35301000D01*
X29682000Y35341000D02*
X31980000Y35341000D01*
X34060000Y35341000D02*
X36358000Y35341000D01*
X29711000Y35381000D02*
X31980000Y35381000D01*
X34060000Y35381000D02*
X36329000Y35381000D01*
X29740000Y35421000D02*
X31980000Y35421000D01*
X34060000Y35421000D02*
X36300000Y35421000D01*
X29770000Y35461000D02*
X31980000Y35461000D01*
X34060000Y35461000D02*
X36270000Y35461000D01*
X29800000Y35501000D02*
X31980000Y35501000D01*
X34060000Y35501000D02*
X36240000Y35501000D01*
X29831000Y35541000D02*
X31980000Y35541000D01*
X34060000Y35541000D02*
X36209000Y35541000D01*
X29864000Y35581000D02*
X31980000Y35581000D01*
X34060000Y35581000D02*
X36176000Y35581000D01*
X29896000Y35621000D02*
X31980000Y35621000D01*
X34060000Y35621000D02*
X36144000Y35621000D01*
X29930000Y35661000D02*
X31980000Y35661000D01*
X34060000Y35661000D02*
X36110000Y35661000D01*
X29965000Y35701000D02*
X31980000Y35701000D01*
X34060000Y35701000D02*
X36075000Y35701000D01*
X30001000Y35741000D02*
X31980000Y35741000D01*
X34060000Y35741000D02*
X36039000Y35741000D01*
X30037000Y35781000D02*
X31980000Y35781000D01*
X34060000Y35781000D02*
X36003000Y35781000D01*
X30075000Y35821000D02*
X31980000Y35821000D01*
X34060000Y35821000D02*
X35965000Y35821000D01*
X30113000Y35861000D02*
X31980000Y35861000D01*
X34060000Y35861000D02*
X35927000Y35861000D01*
X30153000Y35901000D02*
X31980000Y35901000D01*
X34060000Y35901000D02*
X35887000Y35901000D01*
X30194000Y35941000D02*
X31980000Y35941000D01*
X34060000Y35941000D02*
X35846000Y35941000D01*
X30236000Y35981000D02*
X31980000Y35981000D01*
X34060000Y35981000D02*
X35804000Y35981000D01*
X30279000Y36021000D02*
X31980000Y36021000D01*
X34060000Y36021000D02*
X35761000Y36021000D01*
X30323000Y36061000D02*
X31980000Y36061000D01*
X34060000Y36061000D02*
X35717000Y36061000D01*
X30369000Y36101000D02*
X31980000Y36101000D01*
X34060000Y36101000D02*
X35671000Y36101000D01*
X30416000Y36141000D02*
X31980000Y36141000D01*
X34060000Y36141000D02*
X35624000Y36141000D01*
X30464000Y36181000D02*
X31980000Y36181000D01*
X34060000Y36181000D02*
X35576000Y36181000D01*
X30515000Y36221000D02*
X31980000Y36221000D01*
X34060000Y36221000D02*
X35525000Y36221000D01*
X30566000Y36261000D02*
X31980000Y36261000D01*
X34060000Y36261000D02*
X35474000Y36261000D01*
X30620000Y36301000D02*
X31980000Y36301000D01*
X34060000Y36301000D02*
X35420000Y36301000D01*
X30675000Y36341000D02*
X31980000Y36341000D01*
X34060000Y36341000D02*
X35365000Y36341000D01*
X30733000Y36381000D02*
X31980000Y36381000D01*
X34060000Y36381000D02*
X35307000Y36381000D01*
X30792000Y36421000D02*
X31980000Y36421000D01*
X34060000Y36421000D02*
X35248000Y36421000D01*
X30854000Y36461000D02*
X31980000Y36461000D01*
X34060000Y36461000D02*
X35186000Y36461000D01*
X30918000Y36501000D02*
X31980000Y36501000D01*
X34060000Y36501000D02*
X35122000Y36501000D01*
X30986000Y36541000D02*
X35054000Y36541000D01*
X31056000Y36581000D02*
X34984000Y36581000D01*
X31130000Y36621000D02*
X34910000Y36621000D01*
X31207000Y36661000D02*
X34833000Y36661000D01*
X31289000Y36701000D02*
X34751000Y36701000D01*
X31375000Y36741000D02*
X34665000Y36741000D01*
X31468000Y36781000D02*
X34572000Y36781000D01*
X31567000Y36821000D02*
X34473000Y36821000D01*
X31674000Y36861000D02*
X34366000Y36861000D01*
X31791000Y36901000D02*
X34249000Y36901000D01*
X31922000Y36941000D02*
X34118000Y36941000D01*
X32072000Y36981000D02*
X33968000Y36981000D01*
X32252000Y37021000D02*
X33788000Y37021000D01*
X32487000Y37061000D02*
X33553000Y37061000D01*
X30705000Y28570302D02*
X30705000Y29370302D01*
X30305000Y28970302D02*
X31105000Y28970302D01*
%TO.C,C5*%
X74544000Y8285241D02*
X73914000Y8285241D01*
X74229000Y8600241D02*
X74229000Y7970241D01*
X72792000Y1859000D02*
X71988000Y1859000D01*
X73023000Y1899000D02*
X71757000Y1899000D01*
X73192000Y1939000D02*
X71588000Y1939000D01*
X73330000Y1979000D02*
X71450000Y1979000D01*
X73449000Y2019000D02*
X71331000Y2019000D01*
X73555000Y2059000D02*
X71225000Y2059000D01*
X73652000Y2099000D02*
X71128000Y2099000D01*
X73740000Y2139000D02*
X71040000Y2139000D01*
X73822000Y2179000D02*
X70958000Y2179000D01*
X73899000Y2219000D02*
X70881000Y2219000D01*
X73971000Y2259000D02*
X70809000Y2259000D01*
X74040000Y2299000D02*
X70740000Y2299000D01*
X74104000Y2339000D02*
X70676000Y2339000D01*
X74166000Y2379000D02*
X70614000Y2379000D01*
X74224000Y2419000D02*
X70556000Y2419000D01*
X74280000Y2459000D02*
X70500000Y2459000D01*
X74334000Y2499000D02*
X70446000Y2499000D01*
X74385000Y2539000D02*
X70395000Y2539000D01*
X74434000Y2579000D02*
X70346000Y2579000D01*
X74482000Y2619000D02*
X70298000Y2619000D01*
X74527000Y2659000D02*
X70253000Y2659000D01*
X74572000Y2699000D02*
X70208000Y2699000D01*
X74614000Y2739000D02*
X70166000Y2739000D01*
X74655000Y2779000D02*
X70125000Y2779000D01*
X71350000Y2819000D02*
X70085000Y2819000D01*
X74695000Y2819000D02*
X73430000Y2819000D01*
X71350000Y2859000D02*
X70047000Y2859000D01*
X74733000Y2859000D02*
X73430000Y2859000D01*
X71350000Y2899000D02*
X70010000Y2899000D01*
X74770000Y2899000D02*
X73430000Y2899000D01*
X71350000Y2939000D02*
X69974000Y2939000D01*
X74806000Y2939000D02*
X73430000Y2939000D01*
X71350000Y2979000D02*
X69940000Y2979000D01*
X74840000Y2979000D02*
X73430000Y2979000D01*
X71350000Y3019000D02*
X69906000Y3019000D01*
X74874000Y3019000D02*
X73430000Y3019000D01*
X71350000Y3059000D02*
X69874000Y3059000D01*
X74906000Y3059000D02*
X73430000Y3059000D01*
X71350000Y3099000D02*
X69842000Y3099000D01*
X74938000Y3099000D02*
X73430000Y3099000D01*
X71350000Y3139000D02*
X69812000Y3139000D01*
X74968000Y3139000D02*
X73430000Y3139000D01*
X71350000Y3179000D02*
X69783000Y3179000D01*
X74997000Y3179000D02*
X73430000Y3179000D01*
X71350000Y3219000D02*
X69754000Y3219000D01*
X75026000Y3219000D02*
X73430000Y3219000D01*
X71350000Y3259000D02*
X69726000Y3259000D01*
X75054000Y3259000D02*
X73430000Y3259000D01*
X71350000Y3299000D02*
X69700000Y3299000D01*
X75080000Y3299000D02*
X73430000Y3299000D01*
X71350000Y3339000D02*
X69674000Y3339000D01*
X75106000Y3339000D02*
X73430000Y3339000D01*
X71350000Y3379000D02*
X69648000Y3379000D01*
X75132000Y3379000D02*
X73430000Y3379000D01*
X71350000Y3419000D02*
X69624000Y3419000D01*
X75156000Y3419000D02*
X73430000Y3419000D01*
X71350000Y3459000D02*
X69600000Y3459000D01*
X75180000Y3459000D02*
X73430000Y3459000D01*
X71350000Y3499000D02*
X69578000Y3499000D01*
X75202000Y3499000D02*
X73430000Y3499000D01*
X71350000Y3539000D02*
X69556000Y3539000D01*
X75224000Y3539000D02*
X73430000Y3539000D01*
X71350000Y3579000D02*
X69534000Y3579000D01*
X75246000Y3579000D02*
X73430000Y3579000D01*
X71350000Y3619000D02*
X69514000Y3619000D01*
X75266000Y3619000D02*
X73430000Y3619000D01*
X71350000Y3659000D02*
X69494000Y3659000D01*
X75286000Y3659000D02*
X73430000Y3659000D01*
X71350000Y3699000D02*
X69474000Y3699000D01*
X75306000Y3699000D02*
X73430000Y3699000D01*
X71350000Y3739000D02*
X69456000Y3739000D01*
X75324000Y3739000D02*
X73430000Y3739000D01*
X71350000Y3779000D02*
X69438000Y3779000D01*
X75342000Y3779000D02*
X73430000Y3779000D01*
X71350000Y3819000D02*
X69420000Y3819000D01*
X75360000Y3819000D02*
X73430000Y3819000D01*
X71350000Y3859000D02*
X69404000Y3859000D01*
X75376000Y3859000D02*
X73430000Y3859000D01*
X71350000Y3899000D02*
X69388000Y3899000D01*
X75392000Y3899000D02*
X73430000Y3899000D01*
X71350000Y3939000D02*
X69372000Y3939000D01*
X75408000Y3939000D02*
X73430000Y3939000D01*
X71350000Y3979000D02*
X69357000Y3979000D01*
X75423000Y3979000D02*
X73430000Y3979000D01*
X71350000Y4019000D02*
X69343000Y4019000D01*
X75437000Y4019000D02*
X73430000Y4019000D01*
X71350000Y4059000D02*
X69329000Y4059000D01*
X75451000Y4059000D02*
X73430000Y4059000D01*
X71350000Y4099000D02*
X69316000Y4099000D01*
X75464000Y4099000D02*
X73430000Y4099000D01*
X71350000Y4139000D02*
X69304000Y4139000D01*
X75476000Y4139000D02*
X73430000Y4139000D01*
X71350000Y4179000D02*
X69292000Y4179000D01*
X75488000Y4179000D02*
X73430000Y4179000D01*
X71350000Y4219000D02*
X69280000Y4219000D01*
X75500000Y4219000D02*
X73430000Y4219000D01*
X71350000Y4259000D02*
X69269000Y4259000D01*
X75511000Y4259000D02*
X73430000Y4259000D01*
X71350000Y4299000D02*
X69259000Y4299000D01*
X75521000Y4299000D02*
X73430000Y4299000D01*
X71350000Y4339000D02*
X69249000Y4339000D01*
X75531000Y4339000D02*
X73430000Y4339000D01*
X71350000Y4379000D02*
X69240000Y4379000D01*
X75540000Y4379000D02*
X73430000Y4379000D01*
X71350000Y4420000D02*
X69231000Y4420000D01*
X75549000Y4420000D02*
X73430000Y4420000D01*
X71350000Y4460000D02*
X69223000Y4460000D01*
X75557000Y4460000D02*
X73430000Y4460000D01*
X71350000Y4500000D02*
X69215000Y4500000D01*
X75565000Y4500000D02*
X73430000Y4500000D01*
X71350000Y4540000D02*
X69208000Y4540000D01*
X75572000Y4540000D02*
X73430000Y4540000D01*
X71350000Y4580000D02*
X69201000Y4580000D01*
X75579000Y4580000D02*
X73430000Y4580000D01*
X71350000Y4620000D02*
X69195000Y4620000D01*
X75585000Y4620000D02*
X73430000Y4620000D01*
X71350000Y4660000D02*
X69189000Y4660000D01*
X75591000Y4660000D02*
X73430000Y4660000D01*
X71350000Y4700000D02*
X69184000Y4700000D01*
X75596000Y4700000D02*
X73430000Y4700000D01*
X71350000Y4740000D02*
X69179000Y4740000D01*
X75601000Y4740000D02*
X73430000Y4740000D01*
X71350000Y4780000D02*
X69175000Y4780000D01*
X75605000Y4780000D02*
X73430000Y4780000D01*
X71350000Y4820000D02*
X69172000Y4820000D01*
X75608000Y4820000D02*
X73430000Y4820000D01*
X71350000Y4860000D02*
X69168000Y4860000D01*
X75612000Y4860000D02*
X73430000Y4860000D01*
X75614000Y4900000D02*
X69166000Y4900000D01*
X75617000Y4940000D02*
X69163000Y4940000D01*
X75618000Y4980000D02*
X69162000Y4980000D01*
X75620000Y5020000D02*
X69160000Y5020000D01*
X75620000Y5060000D02*
X69160000Y5060000D01*
X75620000Y5100000D02*
X69160000Y5100000D01*
X75660000Y5100000D02*
G75*
G03X75660000Y5100000I-3270000J0D01*
G01*
%TO.C,C6*%
X75660000Y31730000D02*
G75*
G03X75660000Y31730000I-3270000J0D01*
G01*
X69160000Y31730000D02*
X75620000Y31730000D01*
X69160000Y31770000D02*
X75620000Y31770000D01*
X69160000Y31810000D02*
X75620000Y31810000D01*
X69162000Y31850000D02*
X75618000Y31850000D01*
X69163000Y31890000D02*
X75617000Y31890000D01*
X69166000Y31930000D02*
X75614000Y31930000D01*
X69168000Y31970000D02*
X71350000Y31970000D01*
X73430000Y31970000D02*
X75612000Y31970000D01*
X69172000Y32010000D02*
X71350000Y32010000D01*
X73430000Y32010000D02*
X75608000Y32010000D01*
X69175000Y32050000D02*
X71350000Y32050000D01*
X73430000Y32050000D02*
X75605000Y32050000D01*
X69179000Y32090000D02*
X71350000Y32090000D01*
X73430000Y32090000D02*
X75601000Y32090000D01*
X69184000Y32130000D02*
X71350000Y32130000D01*
X73430000Y32130000D02*
X75596000Y32130000D01*
X69189000Y32170000D02*
X71350000Y32170000D01*
X73430000Y32170000D02*
X75591000Y32170000D01*
X69195000Y32210000D02*
X71350000Y32210000D01*
X73430000Y32210000D02*
X75585000Y32210000D01*
X69201000Y32250000D02*
X71350000Y32250000D01*
X73430000Y32250000D02*
X75579000Y32250000D01*
X69208000Y32290000D02*
X71350000Y32290000D01*
X73430000Y32290000D02*
X75572000Y32290000D01*
X69215000Y32330000D02*
X71350000Y32330000D01*
X73430000Y32330000D02*
X75565000Y32330000D01*
X69223000Y32370000D02*
X71350000Y32370000D01*
X73430000Y32370000D02*
X75557000Y32370000D01*
X69231000Y32410000D02*
X71350000Y32410000D01*
X73430000Y32410000D02*
X75549000Y32410000D01*
X69240000Y32451000D02*
X71350000Y32451000D01*
X73430000Y32451000D02*
X75540000Y32451000D01*
X69249000Y32491000D02*
X71350000Y32491000D01*
X73430000Y32491000D02*
X75531000Y32491000D01*
X69259000Y32531000D02*
X71350000Y32531000D01*
X73430000Y32531000D02*
X75521000Y32531000D01*
X69269000Y32571000D02*
X71350000Y32571000D01*
X73430000Y32571000D02*
X75511000Y32571000D01*
X69280000Y32611000D02*
X71350000Y32611000D01*
X73430000Y32611000D02*
X75500000Y32611000D01*
X69292000Y32651000D02*
X71350000Y32651000D01*
X73430000Y32651000D02*
X75488000Y32651000D01*
X69304000Y32691000D02*
X71350000Y32691000D01*
X73430000Y32691000D02*
X75476000Y32691000D01*
X69316000Y32731000D02*
X71350000Y32731000D01*
X73430000Y32731000D02*
X75464000Y32731000D01*
X69329000Y32771000D02*
X71350000Y32771000D01*
X73430000Y32771000D02*
X75451000Y32771000D01*
X69343000Y32811000D02*
X71350000Y32811000D01*
X73430000Y32811000D02*
X75437000Y32811000D01*
X69357000Y32851000D02*
X71350000Y32851000D01*
X73430000Y32851000D02*
X75423000Y32851000D01*
X69372000Y32891000D02*
X71350000Y32891000D01*
X73430000Y32891000D02*
X75408000Y32891000D01*
X69388000Y32931000D02*
X71350000Y32931000D01*
X73430000Y32931000D02*
X75392000Y32931000D01*
X69404000Y32971000D02*
X71350000Y32971000D01*
X73430000Y32971000D02*
X75376000Y32971000D01*
X69420000Y33011000D02*
X71350000Y33011000D01*
X73430000Y33011000D02*
X75360000Y33011000D01*
X69438000Y33051000D02*
X71350000Y33051000D01*
X73430000Y33051000D02*
X75342000Y33051000D01*
X69456000Y33091000D02*
X71350000Y33091000D01*
X73430000Y33091000D02*
X75324000Y33091000D01*
X69474000Y33131000D02*
X71350000Y33131000D01*
X73430000Y33131000D02*
X75306000Y33131000D01*
X69494000Y33171000D02*
X71350000Y33171000D01*
X73430000Y33171000D02*
X75286000Y33171000D01*
X69514000Y33211000D02*
X71350000Y33211000D01*
X73430000Y33211000D02*
X75266000Y33211000D01*
X69534000Y33251000D02*
X71350000Y33251000D01*
X73430000Y33251000D02*
X75246000Y33251000D01*
X69556000Y33291000D02*
X71350000Y33291000D01*
X73430000Y33291000D02*
X75224000Y33291000D01*
X69578000Y33331000D02*
X71350000Y33331000D01*
X73430000Y33331000D02*
X75202000Y33331000D01*
X69600000Y33371000D02*
X71350000Y33371000D01*
X73430000Y33371000D02*
X75180000Y33371000D01*
X69624000Y33411000D02*
X71350000Y33411000D01*
X73430000Y33411000D02*
X75156000Y33411000D01*
X69648000Y33451000D02*
X71350000Y33451000D01*
X73430000Y33451000D02*
X75132000Y33451000D01*
X69674000Y33491000D02*
X71350000Y33491000D01*
X73430000Y33491000D02*
X75106000Y33491000D01*
X69700000Y33531000D02*
X71350000Y33531000D01*
X73430000Y33531000D02*
X75080000Y33531000D01*
X69726000Y33571000D02*
X71350000Y33571000D01*
X73430000Y33571000D02*
X75054000Y33571000D01*
X69754000Y33611000D02*
X71350000Y33611000D01*
X73430000Y33611000D02*
X75026000Y33611000D01*
X69783000Y33651000D02*
X71350000Y33651000D01*
X73430000Y33651000D02*
X74997000Y33651000D01*
X69812000Y33691000D02*
X71350000Y33691000D01*
X73430000Y33691000D02*
X74968000Y33691000D01*
X69842000Y33731000D02*
X71350000Y33731000D01*
X73430000Y33731000D02*
X74938000Y33731000D01*
X69874000Y33771000D02*
X71350000Y33771000D01*
X73430000Y33771000D02*
X74906000Y33771000D01*
X69906000Y33811000D02*
X71350000Y33811000D01*
X73430000Y33811000D02*
X74874000Y33811000D01*
X69940000Y33851000D02*
X71350000Y33851000D01*
X73430000Y33851000D02*
X74840000Y33851000D01*
X69974000Y33891000D02*
X71350000Y33891000D01*
X73430000Y33891000D02*
X74806000Y33891000D01*
X70010000Y33931000D02*
X71350000Y33931000D01*
X73430000Y33931000D02*
X74770000Y33931000D01*
X70047000Y33971000D02*
X71350000Y33971000D01*
X73430000Y33971000D02*
X74733000Y33971000D01*
X70085000Y34011000D02*
X71350000Y34011000D01*
X73430000Y34011000D02*
X74695000Y34011000D01*
X70125000Y34051000D02*
X74655000Y34051000D01*
X70166000Y34091000D02*
X74614000Y34091000D01*
X70208000Y34131000D02*
X74572000Y34131000D01*
X70253000Y34171000D02*
X74527000Y34171000D01*
X70298000Y34211000D02*
X74482000Y34211000D01*
X70346000Y34251000D02*
X74434000Y34251000D01*
X70395000Y34291000D02*
X74385000Y34291000D01*
X70446000Y34331000D02*
X74334000Y34331000D01*
X70500000Y34371000D02*
X74280000Y34371000D01*
X70556000Y34411000D02*
X74224000Y34411000D01*
X70614000Y34451000D02*
X74166000Y34451000D01*
X70676000Y34491000D02*
X74104000Y34491000D01*
X70740000Y34531000D02*
X74040000Y34531000D01*
X70809000Y34571000D02*
X73971000Y34571000D01*
X70881000Y34611000D02*
X73899000Y34611000D01*
X70958000Y34651000D02*
X73822000Y34651000D01*
X71040000Y34691000D02*
X73740000Y34691000D01*
X71128000Y34731000D02*
X73652000Y34731000D01*
X71225000Y34771000D02*
X73555000Y34771000D01*
X71331000Y34811000D02*
X73449000Y34811000D01*
X71450000Y34851000D02*
X73330000Y34851000D01*
X71588000Y34891000D02*
X73192000Y34891000D01*
X71757000Y34931000D02*
X73023000Y34931000D01*
X71988000Y34971000D02*
X72792000Y34971000D01*
X70551000Y28229759D02*
X70551000Y28859759D01*
X70236000Y28544759D02*
X70866000Y28544759D01*
%TO.C,C7*%
X66390000Y12600000D02*
X66390000Y7760000D01*
X63150000Y12600000D02*
X63150000Y7760000D01*
X66390000Y12600000D02*
X63150000Y12600000D01*
X66390000Y7760000D02*
X63150000Y7760000D01*
%TO.C,C8*%
X63150000Y35420000D02*
X66390000Y35420000D01*
X63150000Y30580000D02*
X66390000Y30580000D01*
X66390000Y30580000D02*
X66390000Y35420000D01*
X63150000Y30580000D02*
X63150000Y35420000D01*
%TO.C,D1*%
X23430000Y4320000D02*
X27370000Y4320000D01*
X27370000Y4320000D02*
X27370000Y13460000D01*
X27370000Y13460000D02*
X23430000Y13460000D01*
X23430000Y13460000D02*
X23430000Y4320000D01*
X25400000Y4180000D02*
X25400000Y4320000D01*
X25400000Y13600000D02*
X25400000Y13460000D01*
X23430000Y5775000D02*
X27370000Y5775000D01*
X23430000Y5895000D02*
X27370000Y5895000D01*
X23430000Y5655000D02*
X27370000Y5655000D01*
%TO.C,D2*%
X23430000Y24640000D02*
X27370000Y24640000D01*
X27370000Y24640000D02*
X27370000Y33780000D01*
X27370000Y33780000D02*
X23430000Y33780000D01*
X23430000Y33780000D02*
X23430000Y24640000D01*
X25400000Y24500000D02*
X25400000Y24640000D01*
X25400000Y33920000D02*
X25400000Y33780000D01*
X23430000Y26095000D02*
X27370000Y26095000D01*
X23430000Y26215000D02*
X27370000Y26215000D01*
X23430000Y25975000D02*
X27370000Y25975000D01*
%TO.C,D3*%
X15810000Y5655000D02*
X19750000Y5655000D01*
X15810000Y5895000D02*
X19750000Y5895000D01*
X15810000Y5775000D02*
X19750000Y5775000D01*
X17780000Y13600000D02*
X17780000Y13460000D01*
X17780000Y4180000D02*
X17780000Y4320000D01*
X15810000Y13460000D02*
X15810000Y4320000D01*
X19750000Y13460000D02*
X15810000Y13460000D01*
X19750000Y4320000D02*
X19750000Y13460000D01*
X15810000Y4320000D02*
X19750000Y4320000D01*
%TO.C,D4*%
X15810000Y25975000D02*
X19750000Y25975000D01*
X15810000Y26215000D02*
X19750000Y26215000D01*
X15810000Y26095000D02*
X19750000Y26095000D01*
X17780000Y33920000D02*
X17780000Y33780000D01*
X17780000Y24500000D02*
X17780000Y24640000D01*
X15810000Y33780000D02*
X15810000Y24640000D01*
X19750000Y33780000D02*
X15810000Y33780000D01*
X19750000Y24640000D02*
X19750000Y33780000D01*
X15810000Y24640000D02*
X19750000Y24640000D01*
%TO.C,D5*%
X80201392Y8022335D02*
G75*
G03X80044484Y4790000I1078608J-1672335D01*
G01*
X82358608Y8022335D02*
G75*
G02X82515516Y4790000I-1078608J-1672335D01*
G01*
X80200163Y7391130D02*
G75*
G03X80200000Y5309039I1079837J-1041130D01*
G01*
X82359837Y7391130D02*
G75*
G02X82360000Y5309039I-1079837J-1041130D01*
G01*
X80044000Y4790000D02*
X80200000Y4790000D01*
X82360000Y4790000D02*
X82516000Y4790000D01*
%TO.C,D6*%
X80200000Y33310000D02*
X80044000Y33310000D01*
X82516000Y33310000D02*
X82360000Y33310000D01*
X80200163Y30708870D02*
G75*
G02X80200000Y32790961I1079837J1041130D01*
G01*
X82359837Y30708870D02*
G75*
G03X82360000Y32790961I-1079837J1041130D01*
G01*
X80201392Y30077665D02*
G75*
G02X80044484Y33310000I1078608J1672335D01*
G01*
X82358608Y30077665D02*
G75*
G03X82515516Y33310000I-1078608J1672335D01*
G01*
%TO.C,J2*%
D11*
X96472380Y18716667D02*
X97186666Y18716667D01*
X97329523Y18669048D01*
X97424761Y18573810D01*
X97472380Y18430953D01*
X97472380Y18335715D01*
X96567619Y19145239D02*
X96520000Y19192858D01*
X96472380Y19288096D01*
X96472380Y19526191D01*
X96520000Y19621429D01*
X96567619Y19669048D01*
X96662857Y19716667D01*
X96758095Y19716667D01*
X96900952Y19669048D01*
X97472380Y19097620D01*
X97472380Y19716667D01*
%TO.C,J1*%
X2762380Y18716667D02*
X3476666Y18716667D01*
X3619523Y18669048D01*
X3714761Y18573810D01*
X3762380Y18430953D01*
X3762380Y18335715D01*
X3762380Y19716667D02*
X3762380Y19145239D01*
X3762380Y19430953D02*
X2762380Y19430953D01*
X2905238Y19335715D01*
X3000476Y19240477D01*
X3048095Y19145239D01*
%TO.C,C2*%
X67877142Y26523334D02*
X67924761Y26475715D01*
X67972380Y26332858D01*
X67972380Y26237620D01*
X67924761Y26094762D01*
X67829523Y25999524D01*
X67734285Y25951905D01*
X67543809Y25904286D01*
X67400952Y25904286D01*
X67210476Y25951905D01*
X67115238Y25999524D01*
X67020000Y26094762D01*
X66972380Y26237620D01*
X66972380Y26332858D01*
X67020000Y26475715D01*
X67067619Y26523334D01*
X67067619Y26904286D02*
X67020000Y26951905D01*
X66972380Y27047143D01*
X66972380Y27285239D01*
X67020000Y27380477D01*
X67067619Y27428096D01*
X67162857Y27475715D01*
X67258095Y27475715D01*
X67400952Y27428096D01*
X67972380Y26856667D01*
X67972380Y27475715D01*
%TO.C,C1*%
X62377142Y3623334D02*
X62424761Y3575715D01*
X62472380Y3432858D01*
X62472380Y3337620D01*
X62424761Y3194762D01*
X62329523Y3099524D01*
X62234285Y3051905D01*
X62043809Y3004286D01*
X61900952Y3004286D01*
X61710476Y3051905D01*
X61615238Y3099524D01*
X61520000Y3194762D01*
X61472380Y3337620D01*
X61472380Y3432858D01*
X61520000Y3575715D01*
X61567619Y3623334D01*
X62472380Y4575715D02*
X62472380Y4004286D01*
X62472380Y4290000D02*
X61472380Y4290000D01*
X61615238Y4194762D01*
X61710476Y4099524D01*
X61758095Y4004286D01*
%TO.C,U2*%
X38562380Y29718096D02*
X39371904Y29718096D01*
X39467142Y29765715D01*
X39514761Y29813334D01*
X39562380Y29908572D01*
X39562380Y30099048D01*
X39514761Y30194286D01*
X39467142Y30241905D01*
X39371904Y30289524D01*
X38562380Y30289524D01*
X38657619Y30718096D02*
X38610000Y30765715D01*
X38562380Y30860953D01*
X38562380Y31099048D01*
X38610000Y31194286D01*
X38657619Y31241905D01*
X38752857Y31289524D01*
X38848095Y31289524D01*
X38990952Y31241905D01*
X39562380Y30670477D01*
X39562380Y31289524D01*
%TO.C,U1*%
X38562380Y6858096D02*
X39371904Y6858096D01*
X39467142Y6905715D01*
X39514761Y6953334D01*
X39562380Y7048572D01*
X39562380Y7239048D01*
X39514761Y7334286D01*
X39467142Y7381905D01*
X39371904Y7429524D01*
X38562380Y7429524D01*
X39562380Y8429524D02*
X39562380Y7858096D01*
X39562380Y8143810D02*
X38562380Y8143810D01*
X38705238Y8048572D01*
X38800476Y7953334D01*
X38848095Y7858096D01*
%TO.C,R2*%
X74763333Y26047620D02*
X74430000Y26523810D01*
X74191904Y26047620D02*
X74191904Y27047620D01*
X74572857Y27047620D01*
X74668095Y27000000D01*
X74715714Y26952381D01*
X74763333Y26857143D01*
X74763333Y26714286D01*
X74715714Y26619048D01*
X74668095Y26571429D01*
X74572857Y26523810D01*
X74191904Y26523810D01*
X75144285Y26952381D02*
X75191904Y27000000D01*
X75287142Y27047620D01*
X75525238Y27047620D01*
X75620476Y27000000D01*
X75668095Y26952381D01*
X75715714Y26857143D01*
X75715714Y26761905D01*
X75668095Y26619048D01*
X75096666Y26047620D01*
X75715714Y26047620D01*
%TO.C,R1*%
X74763333Y15887620D02*
X74430000Y16363810D01*
X74191904Y15887620D02*
X74191904Y16887620D01*
X74572857Y16887620D01*
X74668095Y16840000D01*
X74715714Y16792381D01*
X74763333Y16697143D01*
X74763333Y16554286D01*
X74715714Y16459048D01*
X74668095Y16411429D01*
X74572857Y16363810D01*
X74191904Y16363810D01*
X75715714Y15887620D02*
X75144285Y15887620D01*
X75430000Y15887620D02*
X75430000Y16887620D01*
X75334761Y16744762D01*
X75239523Y16649524D01*
X75144285Y16601905D01*
%TO.C,M4*%
X1730476Y5287620D02*
X1730476Y6287620D01*
X2063809Y5573334D01*
X2397142Y6287620D01*
X2397142Y5287620D01*
X3301904Y5954286D02*
X3301904Y5287620D01*
X3063809Y6335239D02*
X2825714Y5620953D01*
X3444761Y5620953D01*
%TO.C,M3*%
X98250476Y5287620D02*
X98250476Y6287620D01*
X98583809Y5573334D01*
X98917142Y6287620D01*
X98917142Y5287620D01*
X99298095Y6287620D02*
X99917142Y6287620D01*
X99583809Y5906667D01*
X99726666Y5906667D01*
X99821904Y5859048D01*
X99869523Y5811429D01*
X99917142Y5716191D01*
X99917142Y5478096D01*
X99869523Y5382858D01*
X99821904Y5335239D01*
X99726666Y5287620D01*
X99440952Y5287620D01*
X99345714Y5335239D01*
X99298095Y5382858D01*
%TO.C,M2*%
X98250476Y31297620D02*
X98250476Y32297620D01*
X98583809Y31583334D01*
X98917142Y32297620D01*
X98917142Y31297620D01*
X99345714Y32202381D02*
X99393333Y32250000D01*
X99488571Y32297620D01*
X99726666Y32297620D01*
X99821904Y32250000D01*
X99869523Y32202381D01*
X99917142Y32107143D01*
X99917142Y32011905D01*
X99869523Y31869048D01*
X99298095Y31297620D01*
X99917142Y31297620D01*
%TO.C,M1*%
X1730476Y31297620D02*
X1730476Y32297620D01*
X2063809Y31583334D01*
X2397142Y32297620D01*
X2397142Y31297620D01*
X3397142Y31297620D02*
X2825714Y31297620D01*
X3111428Y31297620D02*
X3111428Y32297620D01*
X3016190Y32154762D01*
X2920952Y32059524D01*
X2825714Y32011905D01*
%TO.C,C3*%
X28127142Y4873334D02*
X28174761Y4825715D01*
X28222380Y4682858D01*
X28222380Y4587620D01*
X28174761Y4444762D01*
X28079523Y4349524D01*
X27984285Y4301905D01*
X27793809Y4254286D01*
X27650952Y4254286D01*
X27460476Y4301905D01*
X27365238Y4349524D01*
X27270000Y4444762D01*
X27222380Y4587620D01*
X27222380Y4682858D01*
X27270000Y4825715D01*
X27317619Y4873334D01*
X27222380Y5206667D02*
X27222380Y5825715D01*
X27603333Y5492381D01*
X27603333Y5635239D01*
X27650952Y5730477D01*
X27698571Y5778096D01*
X27793809Y5825715D01*
X28031904Y5825715D01*
X28127142Y5778096D01*
X28174761Y5730477D01*
X28222380Y5635239D01*
X28222380Y5349524D01*
X28174761Y5254286D01*
X28127142Y5206667D01*
%TO.C,C4*%
X28127142Y32813334D02*
X28174761Y32765715D01*
X28222380Y32622858D01*
X28222380Y32527620D01*
X28174761Y32384762D01*
X28079523Y32289524D01*
X27984285Y32241905D01*
X27793809Y32194286D01*
X27650952Y32194286D01*
X27460476Y32241905D01*
X27365238Y32289524D01*
X27270000Y32384762D01*
X27222380Y32527620D01*
X27222380Y32622858D01*
X27270000Y32765715D01*
X27317619Y32813334D01*
X27555714Y33670477D02*
X28222380Y33670477D01*
X27174761Y33432381D02*
X27889047Y33194286D01*
X27889047Y33813334D01*
%TO.C,C5*%
X77147142Y4933334D02*
X77194761Y4885715D01*
X77242380Y4742858D01*
X77242380Y4647620D01*
X77194761Y4504762D01*
X77099523Y4409524D01*
X77004285Y4361905D01*
X76813809Y4314286D01*
X76670952Y4314286D01*
X76480476Y4361905D01*
X76385238Y4409524D01*
X76290000Y4504762D01*
X76242380Y4647620D01*
X76242380Y4742858D01*
X76290000Y4885715D01*
X76337619Y4933334D01*
X76242380Y5838096D02*
X76242380Y5361905D01*
X76718571Y5314286D01*
X76670952Y5361905D01*
X76623333Y5457143D01*
X76623333Y5695239D01*
X76670952Y5790477D01*
X76718571Y5838096D01*
X76813809Y5885715D01*
X77051904Y5885715D01*
X77147142Y5838096D01*
X77194761Y5790477D01*
X77242380Y5695239D01*
X77242380Y5457143D01*
X77194761Y5361905D01*
X77147142Y5314286D01*
%TO.C,C6*%
X68347142Y31563334D02*
X68394761Y31515715D01*
X68442380Y31372858D01*
X68442380Y31277620D01*
X68394761Y31134762D01*
X68299523Y31039524D01*
X68204285Y30991905D01*
X68013809Y30944286D01*
X67870952Y30944286D01*
X67680476Y30991905D01*
X67585238Y31039524D01*
X67490000Y31134762D01*
X67442380Y31277620D01*
X67442380Y31372858D01*
X67490000Y31515715D01*
X67537619Y31563334D01*
X67442380Y32420477D02*
X67442380Y32230000D01*
X67490000Y32134762D01*
X67537619Y32087143D01*
X67680476Y31991905D01*
X67870952Y31944286D01*
X68251904Y31944286D01*
X68347142Y31991905D01*
X68394761Y32039524D01*
X68442380Y32134762D01*
X68442380Y32325239D01*
X68394761Y32420477D01*
X68347142Y32468096D01*
X68251904Y32515715D01*
X68013809Y32515715D01*
X67918571Y32468096D01*
X67870952Y32420477D01*
X67823333Y32325239D01*
X67823333Y32134762D01*
X67870952Y32039524D01*
X67918571Y31991905D01*
X68013809Y31944286D01*
%TO.C,C7*%
X67667142Y9993334D02*
X67714761Y9945715D01*
X67762380Y9802858D01*
X67762380Y9707620D01*
X67714761Y9564762D01*
X67619523Y9469524D01*
X67524285Y9421905D01*
X67333809Y9374286D01*
X67190952Y9374286D01*
X67000476Y9421905D01*
X66905238Y9469524D01*
X66810000Y9564762D01*
X66762380Y9707620D01*
X66762380Y9802858D01*
X66810000Y9945715D01*
X66857619Y9993334D01*
X66762380Y10326667D02*
X66762380Y10993334D01*
X67762380Y10564762D01*
%TO.C,C8*%
X62587142Y32853334D02*
X62634761Y32805715D01*
X62682380Y32662858D01*
X62682380Y32567620D01*
X62634761Y32424762D01*
X62539523Y32329524D01*
X62444285Y32281905D01*
X62253809Y32234286D01*
X62110952Y32234286D01*
X61920476Y32281905D01*
X61825238Y32329524D01*
X61730000Y32424762D01*
X61682380Y32567620D01*
X61682380Y32662858D01*
X61730000Y32805715D01*
X61777619Y32853334D01*
X62110952Y33424762D02*
X62063333Y33329524D01*
X62015714Y33281905D01*
X61920476Y33234286D01*
X61872857Y33234286D01*
X61777619Y33281905D01*
X61730000Y33329524D01*
X61682380Y33424762D01*
X61682380Y33615239D01*
X61730000Y33710477D01*
X61777619Y33758096D01*
X61872857Y33805715D01*
X61920476Y33805715D01*
X62015714Y33758096D01*
X62063333Y33710477D01*
X62110952Y33615239D01*
X62110952Y33424762D01*
X62158571Y33329524D01*
X62206190Y33281905D01*
X62301428Y33234286D01*
X62491904Y33234286D01*
X62587142Y33281905D01*
X62634761Y33329524D01*
X62682380Y33424762D01*
X62682380Y33615239D01*
X62634761Y33710477D01*
X62587142Y33758096D01*
X62491904Y33805715D01*
X62301428Y33805715D01*
X62206190Y33758096D01*
X62158571Y33710477D01*
X62110952Y33615239D01*
%TO.C,D1*%
X22882380Y8151905D02*
X21882380Y8151905D01*
X21882380Y8390000D01*
X21930000Y8532858D01*
X22025238Y8628096D01*
X22120476Y8675715D01*
X22310952Y8723334D01*
X22453809Y8723334D01*
X22644285Y8675715D01*
X22739523Y8628096D01*
X22834761Y8532858D01*
X22882380Y8390000D01*
X22882380Y8151905D01*
X22882380Y9675715D02*
X22882380Y9104286D01*
X22882380Y9390000D02*
X21882380Y9390000D01*
X22025238Y9294762D01*
X22120476Y9199524D01*
X22168095Y9104286D01*
X23452380Y2278096D02*
X22452380Y2278096D01*
X23452380Y2849524D02*
X22880952Y2420953D01*
X22452380Y2849524D02*
X23023809Y2278096D01*
%TO.C,D2*%
X22882380Y28471905D02*
X21882380Y28471905D01*
X21882380Y28710000D01*
X21930000Y28852858D01*
X22025238Y28948096D01*
X22120476Y28995715D01*
X22310952Y29043334D01*
X22453809Y29043334D01*
X22644285Y28995715D01*
X22739523Y28948096D01*
X22834761Y28852858D01*
X22882380Y28710000D01*
X22882380Y28471905D01*
X21977619Y29424286D02*
X21930000Y29471905D01*
X21882380Y29567143D01*
X21882380Y29805239D01*
X21930000Y29900477D01*
X21977619Y29948096D01*
X22072857Y29995715D01*
X22168095Y29995715D01*
X22310952Y29948096D01*
X22882380Y29376667D01*
X22882380Y29995715D01*
X23452380Y22598096D02*
X22452380Y22598096D01*
X23452380Y23169524D02*
X22880952Y22740953D01*
X22452380Y23169524D02*
X23023809Y22598096D01*
%TO.C,D3*%
X15262380Y8151905D02*
X14262380Y8151905D01*
X14262380Y8390000D01*
X14310000Y8532858D01*
X14405238Y8628096D01*
X14500476Y8675715D01*
X14690952Y8723334D01*
X14833809Y8723334D01*
X15024285Y8675715D01*
X15119523Y8628096D01*
X15214761Y8532858D01*
X15262380Y8390000D01*
X15262380Y8151905D01*
X14262380Y9056667D02*
X14262380Y9675715D01*
X14643333Y9342381D01*
X14643333Y9485239D01*
X14690952Y9580477D01*
X14738571Y9628096D01*
X14833809Y9675715D01*
X15071904Y9675715D01*
X15167142Y9628096D01*
X15214761Y9580477D01*
X15262380Y9485239D01*
X15262380Y9199524D01*
X15214761Y9104286D01*
X15167142Y9056667D01*
X15832380Y2278096D02*
X14832380Y2278096D01*
X15832380Y2849524D02*
X15260952Y2420953D01*
X14832380Y2849524D02*
X15403809Y2278096D01*
%TO.C,D4*%
X15262380Y28471905D02*
X14262380Y28471905D01*
X14262380Y28710000D01*
X14310000Y28852858D01*
X14405238Y28948096D01*
X14500476Y28995715D01*
X14690952Y29043334D01*
X14833809Y29043334D01*
X15024285Y28995715D01*
X15119523Y28948096D01*
X15214761Y28852858D01*
X15262380Y28710000D01*
X15262380Y28471905D01*
X14595714Y29900477D02*
X15262380Y29900477D01*
X14214761Y29662381D02*
X14929047Y29424286D01*
X14929047Y30043334D01*
X15832380Y22598096D02*
X14832380Y22598096D01*
X15832380Y23169524D02*
X15260952Y22740953D01*
X14832380Y23169524D02*
X15403809Y22598096D01*
%TO.C,D5*%
X78772380Y5611905D02*
X77772380Y5611905D01*
X77772380Y5850000D01*
X77820000Y5992858D01*
X77915238Y6088096D01*
X78010476Y6135715D01*
X78200952Y6183334D01*
X78343809Y6183334D01*
X78534285Y6135715D01*
X78629523Y6088096D01*
X78724761Y5992858D01*
X78772380Y5850000D01*
X78772380Y5611905D01*
X77772380Y7088096D02*
X77772380Y6611905D01*
X78248571Y6564286D01*
X78200952Y6611905D01*
X78153333Y6707143D01*
X78153333Y6945239D01*
X78200952Y7040477D01*
X78248571Y7088096D01*
X78343809Y7135715D01*
X78581904Y7135715D01*
X78677142Y7088096D01*
X78724761Y7040477D01*
X78772380Y6945239D01*
X78772380Y6707143D01*
X78724761Y6611905D01*
X78677142Y6564286D01*
%TO.C,D6*%
X84692380Y31011905D02*
X83692380Y31011905D01*
X83692380Y31250000D01*
X83740000Y31392858D01*
X83835238Y31488096D01*
X83930476Y31535715D01*
X84120952Y31583334D01*
X84263809Y31583334D01*
X84454285Y31535715D01*
X84549523Y31488096D01*
X84644761Y31392858D01*
X84692380Y31250000D01*
X84692380Y31011905D01*
X83692380Y32440477D02*
X83692380Y32250000D01*
X83740000Y32154762D01*
X83787619Y32107143D01*
X83930476Y32011905D01*
X84120952Y31964286D01*
X84501904Y31964286D01*
X84597142Y32011905D01*
X84644761Y32059524D01*
X84692380Y32154762D01*
X84692380Y32345239D01*
X84644761Y32440477D01*
X84597142Y32488096D01*
X84501904Y32535715D01*
X84263809Y32535715D01*
X84168571Y32488096D01*
X84120952Y32440477D01*
X84073333Y32345239D01*
X84073333Y32154762D01*
X84120952Y32059524D01*
X84168571Y32011905D01*
X84263809Y31964286D01*
%TD*%
%LPC*%
%TO.C,J2*%
G36*
X97745240Y25367820D02*
G01*
X97809357Y25358309D01*
X97872233Y25342559D01*
X97933262Y25320722D01*
X97991858Y25293009D01*
X98047454Y25259686D01*
X98099517Y25221073D01*
X98147544Y25177544D01*
X98191073Y25129517D01*
X98229686Y25077454D01*
X98263009Y25021858D01*
X98290722Y24963262D01*
X98312559Y24902233D01*
X98328309Y24839357D01*
X98337820Y24775240D01*
X98341000Y24710500D01*
X98341000Y23389500D01*
X98337820Y23324760D01*
X98328309Y23260643D01*
X98312559Y23197767D01*
X98290722Y23136738D01*
X98263009Y23078142D01*
X98229686Y23022546D01*
X98191073Y22970483D01*
X98147544Y22922456D01*
X98099517Y22878927D01*
X98047454Y22840314D01*
X97991858Y22806991D01*
X97933262Y22779278D01*
X97872233Y22757441D01*
X97809357Y22741691D01*
X97745240Y22732180D01*
X97680500Y22729000D01*
X95359500Y22729000D01*
X95294760Y22732180D01*
X95230643Y22741691D01*
X95167767Y22757441D01*
X95106738Y22779278D01*
X95048142Y22806991D01*
X94992546Y22840314D01*
X94940483Y22878927D01*
X94892456Y22922456D01*
X94848927Y22970483D01*
X94810314Y23022546D01*
X94776991Y23078142D01*
X94749278Y23136738D01*
X94727441Y23197767D01*
X94711691Y23260643D01*
X94702180Y23324760D01*
X94699000Y23389500D01*
X94699000Y24710500D01*
X94702180Y24775240D01*
X94711691Y24839357D01*
X94727441Y24902233D01*
X94749278Y24963262D01*
X94776991Y25021858D01*
X94810314Y25077454D01*
X94848927Y25129517D01*
X94892456Y25177544D01*
X94940483Y25221073D01*
X94992546Y25259686D01*
X95048142Y25293009D01*
X95106738Y25320722D01*
X95167767Y25342559D01*
X95230643Y25358309D01*
X95294760Y25367820D01*
X95359500Y25371000D01*
X97680500Y25371000D01*
X97745240Y25367820D01*
G37*
G36*
X97745240Y20367820D02*
G01*
X97809357Y20358309D01*
X97872233Y20342559D01*
X97933262Y20320722D01*
X97991858Y20293009D01*
X98047454Y20259686D01*
X98099517Y20221073D01*
X98147544Y20177544D01*
X98191073Y20129517D01*
X98229686Y20077454D01*
X98263009Y20021858D01*
X98290722Y19963262D01*
X98312559Y19902233D01*
X98328309Y19839357D01*
X98337820Y19775240D01*
X98341000Y19710500D01*
X98341000Y18389500D01*
X98337820Y18324760D01*
X98328309Y18260643D01*
X98312559Y18197767D01*
X98290722Y18136738D01*
X98263009Y18078142D01*
X98229686Y18022546D01*
X98191073Y17970483D01*
X98147544Y17922456D01*
X98099517Y17878927D01*
X98047454Y17840314D01*
X97991858Y17806991D01*
X97933262Y17779278D01*
X97872233Y17757441D01*
X97809357Y17741691D01*
X97745240Y17732180D01*
X97680500Y17729000D01*
X95359500Y17729000D01*
X95294760Y17732180D01*
X95230643Y17741691D01*
X95167767Y17757441D01*
X95106738Y17779278D01*
X95048142Y17806991D01*
X94992546Y17840314D01*
X94940483Y17878927D01*
X94892456Y17922456D01*
X94848927Y17970483D01*
X94810314Y18022546D01*
X94776991Y18078142D01*
X94749278Y18136738D01*
X94727441Y18197767D01*
X94711691Y18260643D01*
X94702180Y18324760D01*
X94699000Y18389500D01*
X94699000Y19710500D01*
X94702180Y19775240D01*
X94711691Y19839357D01*
X94727441Y19902233D01*
X94749278Y19963262D01*
X94776991Y20021858D01*
X94810314Y20077454D01*
X94848927Y20129517D01*
X94892456Y20177544D01*
X94940483Y20221073D01*
X94992546Y20259686D01*
X95048142Y20293009D01*
X95106738Y20320722D01*
X95167767Y20342559D01*
X95230643Y20358309D01*
X95294760Y20367820D01*
X95359500Y20371000D01*
X97680500Y20371000D01*
X97745240Y20367820D01*
G37*
G36*
X97745240Y15367820D02*
G01*
X97809357Y15358309D01*
X97872233Y15342559D01*
X97933262Y15320722D01*
X97991858Y15293009D01*
X98047454Y15259686D01*
X98099517Y15221073D01*
X98147544Y15177544D01*
X98191073Y15129517D01*
X98229686Y15077454D01*
X98263009Y15021858D01*
X98290722Y14963262D01*
X98312559Y14902233D01*
X98328309Y14839357D01*
X98337820Y14775240D01*
X98341000Y14710500D01*
X98341000Y13389500D01*
X98337820Y13324760D01*
X98328309Y13260643D01*
X98312559Y13197767D01*
X98290722Y13136738D01*
X98263009Y13078142D01*
X98229686Y13022546D01*
X98191073Y12970483D01*
X98147544Y12922456D01*
X98099517Y12878927D01*
X98047454Y12840314D01*
X97991858Y12806991D01*
X97933262Y12779278D01*
X97872233Y12757441D01*
X97809357Y12741691D01*
X97745240Y12732180D01*
X97680500Y12729000D01*
X95359500Y12729000D01*
X95294760Y12732180D01*
X95230643Y12741691D01*
X95167767Y12757441D01*
X95106738Y12779278D01*
X95048142Y12806991D01*
X94992546Y12840314D01*
X94940483Y12878927D01*
X94892456Y12922456D01*
X94848927Y12970483D01*
X94810314Y13022546D01*
X94776991Y13078142D01*
X94749278Y13136738D01*
X94727441Y13197767D01*
X94711691Y13260643D01*
X94702180Y13324760D01*
X94699000Y13389500D01*
X94699000Y14710500D01*
X94702180Y14775240D01*
X94711691Y14839357D01*
X94727441Y14902233D01*
X94749278Y14963262D01*
X94776991Y15021858D01*
X94810314Y15077454D01*
X94848927Y15129517D01*
X94892456Y15177544D01*
X94940483Y15221073D01*
X94992546Y15259686D01*
X95048142Y15293009D01*
X95106738Y15320722D01*
X95167767Y15342559D01*
X95230643Y15358309D01*
X95294760Y15367820D01*
X95359500Y15371000D01*
X97680500Y15371000D01*
X97745240Y15367820D01*
G37*
%TD*%
%TO.C,J1*%
G36*
X5035240Y15367820D02*
G01*
X5099357Y15358309D01*
X5162233Y15342559D01*
X5223262Y15320722D01*
X5281858Y15293009D01*
X5337454Y15259686D01*
X5389517Y15221073D01*
X5437544Y15177544D01*
X5481073Y15129517D01*
X5519686Y15077454D01*
X5553009Y15021858D01*
X5580722Y14963262D01*
X5602559Y14902233D01*
X5618309Y14839357D01*
X5627820Y14775240D01*
X5631000Y14710500D01*
X5631000Y13389500D01*
X5627820Y13324760D01*
X5618309Y13260643D01*
X5602559Y13197767D01*
X5580722Y13136738D01*
X5553009Y13078142D01*
X5519686Y13022546D01*
X5481073Y12970483D01*
X5437544Y12922456D01*
X5389517Y12878927D01*
X5337454Y12840314D01*
X5281858Y12806991D01*
X5223262Y12779278D01*
X5162233Y12757441D01*
X5099357Y12741691D01*
X5035240Y12732180D01*
X4970500Y12729000D01*
X2649500Y12729000D01*
X2584760Y12732180D01*
X2520643Y12741691D01*
X2457767Y12757441D01*
X2396738Y12779278D01*
X2338142Y12806991D01*
X2282546Y12840314D01*
X2230483Y12878927D01*
X2182456Y12922456D01*
X2138927Y12970483D01*
X2100314Y13022546D01*
X2066991Y13078142D01*
X2039278Y13136738D01*
X2017441Y13197767D01*
X2001691Y13260643D01*
X1992180Y13324760D01*
X1989000Y13389500D01*
X1989000Y14710500D01*
X1992180Y14775240D01*
X2001691Y14839357D01*
X2017441Y14902233D01*
X2039278Y14963262D01*
X2066991Y15021858D01*
X2100314Y15077454D01*
X2138927Y15129517D01*
X2182456Y15177544D01*
X2230483Y15221073D01*
X2282546Y15259686D01*
X2338142Y15293009D01*
X2396738Y15320722D01*
X2457767Y15342559D01*
X2520643Y15358309D01*
X2584760Y15367820D01*
X2649500Y15371000D01*
X4970500Y15371000D01*
X5035240Y15367820D01*
G37*
G36*
X5035240Y20367820D02*
G01*
X5099357Y20358309D01*
X5162233Y20342559D01*
X5223262Y20320722D01*
X5281858Y20293009D01*
X5337454Y20259686D01*
X5389517Y20221073D01*
X5437544Y20177544D01*
X5481073Y20129517D01*
X5519686Y20077454D01*
X5553009Y20021858D01*
X5580722Y19963262D01*
X5602559Y19902233D01*
X5618309Y19839357D01*
X5627820Y19775240D01*
X5631000Y19710500D01*
X5631000Y18389500D01*
X5627820Y18324760D01*
X5618309Y18260643D01*
X5602559Y18197767D01*
X5580722Y18136738D01*
X5553009Y18078142D01*
X5519686Y18022546D01*
X5481073Y17970483D01*
X5437544Y17922456D01*
X5389517Y17878927D01*
X5337454Y17840314D01*
X5281858Y17806991D01*
X5223262Y17779278D01*
X5162233Y17757441D01*
X5099357Y17741691D01*
X5035240Y17732180D01*
X4970500Y17729000D01*
X2649500Y17729000D01*
X2584760Y17732180D01*
X2520643Y17741691D01*
X2457767Y17757441D01*
X2396738Y17779278D01*
X2338142Y17806991D01*
X2282546Y17840314D01*
X2230483Y17878927D01*
X2182456Y17922456D01*
X2138927Y17970483D01*
X2100314Y18022546D01*
X2066991Y18078142D01*
X2039278Y18136738D01*
X2017441Y18197767D01*
X2001691Y18260643D01*
X1992180Y18324760D01*
X1989000Y18389500D01*
X1989000Y19710500D01*
X1992180Y19775240D01*
X2001691Y19839357D01*
X2017441Y19902233D01*
X2039278Y19963262D01*
X2066991Y20021858D01*
X2100314Y20077454D01*
X2138927Y20129517D01*
X2182456Y20177544D01*
X2230483Y20221073D01*
X2282546Y20259686D01*
X2338142Y20293009D01*
X2396738Y20320722D01*
X2457767Y20342559D01*
X2520643Y20358309D01*
X2584760Y20367820D01*
X2649500Y20371000D01*
X4970500Y20371000D01*
X5035240Y20367820D01*
G37*
G36*
X5035240Y25367820D02*
G01*
X5099357Y25358309D01*
X5162233Y25342559D01*
X5223262Y25320722D01*
X5281858Y25293009D01*
X5337454Y25259686D01*
X5389517Y25221073D01*
X5437544Y25177544D01*
X5481073Y25129517D01*
X5519686Y25077454D01*
X5553009Y25021858D01*
X5580722Y24963262D01*
X5602559Y24902233D01*
X5618309Y24839357D01*
X5627820Y24775240D01*
X5631000Y24710500D01*
X5631000Y23389500D01*
X5627820Y23324760D01*
X5618309Y23260643D01*
X5602559Y23197767D01*
X5580722Y23136738D01*
X5553009Y23078142D01*
X5519686Y23022546D01*
X5481073Y22970483D01*
X5437544Y22922456D01*
X5389517Y22878927D01*
X5337454Y22840314D01*
X5281858Y22806991D01*
X5223262Y22779278D01*
X5162233Y22757441D01*
X5099357Y22741691D01*
X5035240Y22732180D01*
X4970500Y22729000D01*
X2649500Y22729000D01*
X2584760Y22732180D01*
X2520643Y22741691D01*
X2457767Y22757441D01*
X2396738Y22779278D01*
X2338142Y22806991D01*
X2282546Y22840314D01*
X2230483Y22878927D01*
X2182456Y22922456D01*
X2138927Y22970483D01*
X2100314Y23022546D01*
X2066991Y23078142D01*
X2039278Y23136738D01*
X2017441Y23197767D01*
X2001691Y23260643D01*
X1992180Y23324760D01*
X1989000Y23389500D01*
X1989000Y24710500D01*
X1992180Y24775240D01*
X2001691Y24839357D01*
X2017441Y24902233D01*
X2039278Y24963262D01*
X2066991Y25021858D01*
X2100314Y25077454D01*
X2138927Y25129517D01*
X2182456Y25177544D01*
X2230483Y25221073D01*
X2282546Y25259686D01*
X2338142Y25293009D01*
X2396738Y25320722D01*
X2457767Y25342559D01*
X2520643Y25358309D01*
X2584760Y25367820D01*
X2649500Y25371000D01*
X4970500Y25371000D01*
X5035240Y25367820D01*
G37*
%TD*%
D13*
%TO.C,C2*%
X64770000Y25440000D03*
X64770000Y27940000D03*
%TD*%
%TO.C,C1*%
X64770000Y5040000D03*
X64770000Y2540000D03*
%TD*%
D14*
%TO.C,U2*%
X59690000Y33020000D03*
X59690000Y30480000D03*
D15*
X59690000Y27940000D03*
D16*
X43030000Y30480000D03*
%TD*%
D14*
%TO.C,U1*%
X59690000Y10160000D03*
X59690000Y7620000D03*
D15*
X59690000Y5080000D03*
D16*
X43030000Y7620000D03*
%TD*%
D17*
%TO.C,R2*%
X77470000Y24130000D03*
D18*
X72390000Y24130000D03*
%TD*%
D17*
%TO.C,R1*%
X77470000Y13970000D03*
D18*
X72390000Y13970000D03*
%TD*%
D19*
%TO.C,M4*%
X2540000Y2540000D03*
%TD*%
%TO.C,M3*%
X99060000Y2540000D03*
%TD*%
%TO.C,M2*%
X99060000Y35560000D03*
%TD*%
%TO.C,M1*%
X2540000Y35560000D03*
%TD*%
D18*
%TO.C,C3*%
X33020000Y7540000D03*
D20*
X33020000Y2540000D03*
%TD*%
%TO.C,C4*%
X33020000Y30480000D03*
D18*
X33020000Y35480000D03*
%TD*%
%TO.C,C5*%
X72390000Y3850000D03*
D20*
X72390000Y6350000D03*
%TD*%
%TO.C,C6*%
X72390000Y30480000D03*
D18*
X72390000Y32980000D03*
%TD*%
D13*
%TO.C,C7*%
X64770000Y11430000D03*
X64770000Y8930000D03*
%TD*%
%TO.C,C8*%
X64770000Y34250000D03*
X64770000Y31750000D03*
%TD*%
D21*
%TO.C,D1*%
X25400000Y2540000D03*
D22*
X25400000Y15240000D03*
%TD*%
D21*
%TO.C,D2*%
X25400000Y22860000D03*
D22*
X25400000Y35560000D03*
%TD*%
%TO.C,D3*%
X17780000Y15240000D03*
D21*
X17780000Y2540000D03*
%TD*%
D22*
%TO.C,D4*%
X17780000Y35560000D03*
D21*
X17780000Y22860000D03*
%TD*%
D23*
%TO.C,D5*%
X81280000Y5080000D03*
D24*
X81280000Y7620000D03*
%TD*%
%TO.C,D6*%
X81280000Y30480000D03*
D23*
X81280000Y33020000D03*
%TD*%
M02*
